<?xml version="1.0" standalone="no"?>
<!DOCTYPE svg PUBLIC "-//W3C//DTD SVG 20010904//EN"
 "http://www.w3.org/TR/2001/REC-SVG-20010904/DTD/svg10.dtd">
<svg version="1.0" xmlns="http://www.w3.org/2000/svg"
 width="512.000000pt" height="512.000000pt" viewBox="0 0 512.000000 512.000000"
 preserveAspectRatio="xMidYMid meet">
<metadata>
Created by potrace 1.14, written by Peter Selinger 2001-2017
</metadata>
<g transform="translate(0.000000,512.000000) scale(0.100000,-0.100000)"
fill="#000000" stroke="none">
<path d="M3120 3706 c0 -2 8 -10 18 -17 15 -13 16 -12 3 4 -13 16 -21 21 -21
13z"/>
<path d="M2794 3445 l-249 -244 70 0 70 -1 218 213 218 212 -33 33 c-19 17
-36 32 -40 32 -3 0 -117 -110 -254 -245z"/>
<path d="M3280 3541 c0 -5 77 -83 171 -175 l171 -166 536 0 536 0 -89 88 -90
89 -120 16 c-67 9 -235 41 -375 71 -140 30 -311 62 -378 70 -134 17 -362 22
-362 7z"/>
<path d="M1246 3240 c-421 -31 -784 -138 -1038 -307 -81 -53 -108 -85 -108
-127 0 -63 60 -106 147 -106 54 0 86 17 179 92 231 187 721 308 1248 308 255
0 346 -8 1006 -90 806 -100 1125 -130 1378 -130 136 0 318 16 412 35 36 8 49
12 30 9 -19 -2 -129 -7 -245 -10 -351 -10 -629 25 -1655 206 -362 64 -562 94
-735 110 -160 15 -482 20 -619 10z"/>
<path d="M4680 3134 c-239 -83 -603 -124 -932 -104 -95 6 -247 20 -337 31 -89
11 -165 19 -167 16 -2 -2 49 -13 114 -25 492 -92 868 -103 1223 -37 134 24
253 58 277 77 32 27 -4 79 -54 77 -16 -1 -72 -16 -124 -35z"/>
<path d="M3198 3083 c7 -3 16 -2 19 1 4 3 -2 6 -13 5 -11 0 -14 -3 -6 -6z"/>
<path d="M4548 2933 c6 -2 18 -2 25 0 6 3 1 5 -13 5 -14 0 -19 -2 -12 -5z"/>
<path d="M970 2818 c-23 -39 -23 -39 -8 -73 13 -30 56 -45 69 -24 16 24 5 53
-20 59 -14 3 -27 12 -29 19 -3 10 2 12 21 7 18 -4 27 -1 31 10 17 45 -37 46
-64 2z"/>
<path d="M1585 2727 c-4 -10 -3 -29 4 -43 6 -14 11 -40 11 -59 0 -19 3 -35 8
-35 4 0 5 -23 3 -51 -2 -38 -6 -49 -17 -45 -8 3 -13 2 -12 -2 4 -12 -26 -52
-39 -52 -7 0 -13 4 -13 9 0 5 -8 12 -17 15 -15 6 -15 5 1 -13 18 -19 17 -20
-5 -18 -13 1 -29 8 -35 15 -9 13 -11 13 -11 0 0 -8 13 -22 29 -31 16 -9 27
-13 24 -8 -3 5 3 11 14 14 19 5 19 4 2 -18 -13 -17 -22 -20 -42 -15 -14 4 -24
11 -23 17 1 5 -8 9 -20 10 -12 0 -16 -1 -9 -4 7 -3 17 -13 22 -24 9 -15 7 -19
-5 -19 -9 0 -13 5 -10 10 3 6 4 10 0 10 -3 0 -9 -10 -14 -22 -9 -24 -71 -66
-71 -49 0 5 -9 8 -20 6 -11 -2 -18 -1 -16 4 3 4 1 13 -5 21 -6 11 -9 12 -9 2
0 -7 -4 -11 -9 -8 -5 3 -7 16 -4 29 3 16 2 18 -5 8 -8 -11 -12 -10 -21 7 -9
16 -7 21 7 28 9 4 24 7 32 6 10 -1 11 0 3 4 -10 4 -10 10 1 26 13 18 11 26
-26 86 -63 103 -78 119 -129 141 -49 22 -135 29 -124 11 3 -5 0 -10 -9 -10 -8
0 -17 6 -19 13 -4 10 -6 10 -6 0 -1 -15 -28 -18 -33 -4 -6 16 -79 -16 -115
-51 -69 -66 -123 -220 -123 -349 0 -126 41 -346 61 -333 5 3 6 11 2 17 -4 7 1
6 10 -2 10 -8 20 -11 24 -7 3 3 1 6 -5 6 -8 0 -9 7 -2 25 5 14 7 38 4 54 -3
16 -2 31 3 34 5 4 7 21 5 39 -4 28 -6 30 -13 13 -5 -14 -7 -7 -6 22 1 23 6 41
11 40 5 -1 15 8 21 21 13 25 17 4 31 -190 6 -81 6 -88 -11 -88 -17 0 -17 -2 3
-20 36 -34 19 -50 -54 -50 -62 0 -64 1 -64 25 0 18 5 25 20 25 11 0 20 5 20
10 0 6 -13 10 -30 10 -28 0 -30 -3 -30 -35 l0 -35 -75 0 -75 0 0 -29 c0 -40
13 -46 92 -43 64 2 85 -7 56 -24 -7 -4 -8 -3 -4 4 5 8 -2 12 -21 12 l-28 0 25
-13 c35 -18 152 -16 158 2 3 9 0 11 -8 6 -8 -5 -11 -4 -7 2 4 6 51 11 109 12
56 1 108 7 115 13 10 8 12 4 8 -18 -3 -16 -12 -83 -20 -149 -27 -212 -17 -285
41 -299 20 -5 24 -10 15 -19 -16 -16 -14 -44 5 -51 26 -10 152 -7 159 4 3 5
-14 20 -39 32 -26 12 -46 26 -46 30 0 5 9 27 20 48 34 67 51 176 57 362 7 203
-2 272 -53 451 -45 155 -45 222 -1 148 9 -16 33 -43 52 -60 29 -25 44 -31 83
-31 64 0 143 40 207 104 32 32 59 50 75 50 27 1 27 -1 10 86 -4 25 -7 87 -6
138 2 50 -1 92 -6 92 -4 0 -8 -4 -8 -10 0 -17 -18 -11 -23 8 -4 16 -4 16 -12
-1z m55 -297 c0 -5 -4 -10 -10 -10 -5 0 -10 5 -10 10 0 6 5 10 10 10 6 0 10
-4 10 -10z m-830 -37 c0 -12 3 -14 8 -6 4 6 19 9 34 6 22 -4 29 -12 34 -39 4
-20 1 -48 -7 -67 -17 -43 -17 -43 -35 -21 -15 19 -15 19 -6 -1 13 -28 4 -49
-13 -35 -8 6 -11 19 -8 27 4 11 2 14 -5 9 -8 -5 -10 -1 -5 10 4 12 3 15 -5 10
-7 -4 -12 -3 -12 2 0 16 13 22 27 11 8 -7 13 -8 13 -1 0 12 -28 24 -39 17 -5
-2 -6 7 -3 20 2 14 9 25 15 25 7 0 7 4 -1 12 -15 15 -16 38 -2 38 6 0 10 -8
10 -17z m272 -526 c-8 -30 -22 2 -21 48 l1 40 12 -35 c7 -19 11 -43 8 -53z"/>
<path d="M810 2340 c-9 -6 -10 -10 -3 -10 6 0 15 5 18 10 8 12 4 12 -15 0z"/>
<path d="M842 2310 c0 -14 2 -19 5 -12 2 6 2 18 0 25 -3 6 -5 1 -5 -13z"/>
<path d="M2255 2569 c-70 -22 -115 -88 -115 -169 0 -150 160 -231 268 -136 42
37 62 81 62 138 0 112 -113 200 -215 167z m105 -64 c18 -9 34 -30 45 -60 17
-42 17 -48 1 -89 -20 -53 -52 -76 -103 -76 -64 0 -113 52 -113 120 0 93 88
147 170 105z"/>
<path d="M1800 2400 l0 -170 30 0 30 0 0 75 0 75 60 0 60 0 0 -75 c0 -73 1
-75 25 -75 l25 0 0 170 0 170 -25 0 c-24 0 -25 -2 -25 -65 l0 -65 -60 0 -60 0
0 65 0 65 -30 0 -30 0 0 -170z"/>
<path d="M2605 2538 c-16 -96 -45 -285 -45 -296 0 -9 10 -12 27 -10 26 3 28 6
43 100 8 53 18 99 21 102 3 4 20 -41 38 -100 31 -101 34 -105 59 -102 24 3 29
12 58 101 17 53 33 100 36 103 5 5 13 -36 33 -163 6 -40 9 -43 37 -43 20 0 29
4 25 13 -2 6 -15 83 -27 170 l-24 158 -30 -3 c-28 -3 -31 -8 -70 -123 l-40
-120 -39 123 c-38 118 -40 122 -68 122 -24 0 -29 -5 -34 -32z"/>
<path d="M3030 2400 l0 -170 89 0 88 0 -1 30 c-1 30 -2 30 -58 30 l-58 0 0 45
0 44 58 3 c55 3 57 4 58 31 1 26 0 27 -57 27 l-59 0 0 35 0 35 58 0 c56 0 57
0 58 30 l1 30 -88 0 -89 0 0 -170z"/>
<path d="M3300 2401 l0 -171 30 0 30 0 0 74 0 73 41 7 c82 13 117 93 66 152
-20 23 -33 27 -95 32 l-72 5 0 -172z m129 91 c14 -27 -5 -52 -39 -52 -28 0
-30 3 -30 35 0 32 2 35 30 35 18 0 33 -7 39 -18z"/>
<path d="M3600 2400 l0 -170 89 0 90 0 -3 28 c-3 25 -6 27 -60 30 l-56 3 0 44
0 44 58 3 c53 3 57 5 57 28 0 23 -4 25 -57 28 l-58 3 0 34 0 34 57 3 c54 3 58
5 58 28 -1 25 -2 25 -88 28 l-87 3 0 -171z"/>
<path d="M3880 2400 l0 -173 80 5 c90 5 121 21 155 79 25 44 25 121 0 174 -27
54 -71 77 -161 83 l-74 5 0 -173z m165 87 c18 -15 28 -36 32 -64 12 -87 -20
-133 -92 -133 l-45 0 0 110 0 110 39 0 c27 0 48 -7 66 -23z"/>
<path d="M4240 2400 l0 -170 25 0 25 0 0 170 0 170 -25 0 -25 0 0 -170z"/>
<path d="M4480 2513 c-57 -151 -100 -271 -100 -277 0 -3 13 -6 29 -6 23 0 30
6 37 33 10 32 10 32 82 35 l71 3 15 -36 c12 -27 21 -35 40 -35 15 0 26 4 26 9
0 4 -18 57 -41 117 -23 60 -50 133 -61 162 -17 46 -23 52 -48 52 -26 0 -31 -6
-50 -57z m81 -105 l19 -48 -49 0 -49 0 20 52 c25 67 31 75 36 58 3 -8 13 -36
23 -62z"/>
<path d="M1354 2378 c-4 -6 -3 -8 2 -5 6 3 16 2 24 -3 12 -7 12 -11 0 -25 -12
-15 -11 -15 14 -4 25 12 31 34 9 34 -6 0 -15 3 -19 8 -11 10 -22 9 -30 -5z"/>
<path d="M2068 2013 c7 -3 16 -2 19 1 4 3 -2 6 -13 5 -11 0 -14 -3 -6 -6z"/>
<path d="M2141 1963 c1 -32 4 -46 6 -31 2 15 12 29 21 31 15 4 15 5 0 6 -27 2
-23 39 5 44 19 4 18 4 -5 6 -28 1 -28 0 -27 -56z"/>
<path d="M2248 2013 c7 -3 16 -2 19 1 4 3 -2 6 -13 5 -11 0 -14 -3 -6 -6z"/>
<path d="M2613 2013 c9 -2 23 -2 30 0 6 3 -1 5 -18 5 -16 0 -22 -2 -12 -5z"/>
<path d="M2843 2013 c9 -2 25 -2 35 0 9 3 1 5 -18 5 -19 0 -27 -2 -17 -5z"/>
<path d="M3322 1963 l2 -58 3 52 c3 38 8 53 21 56 12 3 11 5 -5 6 -22 1 -23
-3 -21 -56z"/>
<path d="M3488 2013 c7 -3 16 -2 19 1 4 3 -2 6 -13 5 -11 0 -14 -3 -6 -6z"/>
<path d="M3848 2013 c7 -3 16 -2 19 1 4 3 -2 6 -13 5 -11 0 -14 -3 -6 -6z"/>
<path d="M4032 2013 c13 -3 18 -18 21 -56 l3 -52 2 52 c2 40 6 53 20 56 9 3
-1 5 -23 5 -22 0 -32 -2 -23 -5z"/>
<path d="M4143 2013 c9 -2 23 -2 30 0 6 3 -1 5 -18 5 -16 0 -22 -2 -12 -5z"/>
<path d="M4222 1963 l2 -58 3 52 c3 38 8 53 21 56 12 3 11 5 -5 6 -22 1 -23
-3 -21 -56z"/>
<path d="M4338 2013 c7 -3 16 -2 19 1 4 3 -2 6 -13 5 -11 0 -14 -3 -6 -6z"/>
<path d="M2443 1960 c0 -30 2 -43 4 -27 2 15 2 39 0 55 -2 15 -4 2 -4 -28z"/>
<path d="M2040 1991 c0 -6 4 -13 10 -16 6 -3 7 1 4 9 -7 18 -14 21 -14 7z"/>
<path d="M4310 1991 c0 -6 4 -13 10 -16 6 -3 7 1 4 9 -7 18 -14 21 -14 7z"/>
<path d="M3541 1964 c0 -11 3 -14 6 -6 3 7 2 16 -1 19 -3 4 -6 -2 -5 -13z"/>
<path d="M3582 1960 c0 -14 2 -19 5 -12 2 6 2 18 0 25 -3 6 -5 1 -5 -13z"/>
<path d="M2608 1963 c6 -2 18 -2 25 0 6 3 1 5 -13 5 -14 0 -19 -2 -12 -5z"/>
<path d="M4138 1963 c6 -2 18 -2 25 0 6 3 1 5 -13 5 -14 0 -19 -2 -12 -5z"/>
<path d="M820 1941 c0 -6 4 -12 8 -15 5 -3 9 1 9 9 0 8 -4 15 -9 15 -4 0 -8
-4 -8 -9z"/>
<path d="M605 1771 c-3 -5 0 -13 6 -16 6 -4 8 -19 5 -34 -5 -19 -4 -22 4 -11
8 13 10 12 10 -5 0 -15 2 -17 9 -6 7 11 10 10 14 -5 4 -16 5 -16 6 4 1 13 -5
22 -13 22 -7 0 -16 9 -19 20 -3 11 -1 20 5 20 5 0 6 5 3 10 -8 13 -22 13 -30
1z"/>
<path d="M811 1603 c-41 -146 -36 -226 15 -239 19 -5 24 -11 20 -25 -3 -11 -9
-27 -12 -38 -7 -23 18 -31 103 -31 72 0 87 13 43 38 -67 37 -66 33 -37 93 29
60 78 220 70 232 -2 4 -46 7 -98 7 l-94 0 -10 -37z"/>
</g>
</svg>
