<?xml version="1.0" standalone="no"?>
<!DOCTYPE svg PUBLIC "-//W3C//DTD SVG 1.1//EN" "http://www.w3.org/Graphics/SVG/1.1/DTD/svg11.dtd" >
<svg xmlns="http://www.w3.org/2000/svg">
<metadata>Generated by IcoMoon</metadata>
<defs>
<font id="icomoon" horiz-adv-x="1024">
<font-face units-per-em="1024" ascent="960" descent="-64" />
<missing-glyph horiz-adv-x="1024" />
<glyph unicode="&#x20;" horiz-adv-x="512" d="" />
<glyph unicode="&#xe900;" glyph-name="warning" d="M554 340.667v172h-84v-172h84zM554 170.667v86h-84v-86h84zM42 42.667l470 810 470-810h-940z" />
<glyph unicode="&#xe901;" glyph-name="fast_forward" d="M554 682.667l364-256-364-256v512zM170 170.667v512l364-256z" />
<glyph unicode="&#xe902;" glyph-name="fast_rewind" d="M490 426.667l364 256v-512zM470 170.667l-364 256 364 256v-512z" />
<glyph unicode="&#xe903;" glyph-name="replay" d="M512 724.667q142 0 242-100t100-240q0-142-101-242t-241-100-241 100-101 242h86q0-106 75-181t181-75 181 75 75 181-75 181-181 75v-172l-214 214 214 214v-172z" />
<glyph unicode="&#xe904;" glyph-name="email" d="M854 596.667v86l-342-214-342 214v-86l342-212zM854 768.667q34 0 59-26t25-60v-512q0-34-25-60t-59-26h-684q-34 0-59 26t-25 60v512q0 34 25 60t59 26h684z" />
<glyph unicode="&#xe905;" glyph-name="forum" d="M726 426.667q0-18-13-30t-31-12h-426l-170-172v598q0 18 12 30t30 12h554q18 0 31-12t13-30v-384zM896 682.667q18 0 30-12t12-30v-640l-170 170h-470q-18 0-30 12t-12 30v86h554v384h86z" />
<glyph unicode="&#xe906;" glyph-name="location_on" d="M512 448.667q44 0 75 31t31 75-31 75-75 31-75-31-31-75 31-75 75-31zM512 852.667q124 0 211-87t87-211q0-62-31-142t-75-150-87-131-73-97l-32-34q-12 14-32 37t-72 92-91 134-71 147-32 144q0 124 87 211t211 87z" />
<glyph unicode="&#xe907;" glyph-name="phone" d="M282 478.667q96-186 282-282l94 94q20 20 44 10 72-24 152-24 18 0 30-12t12-30v-150q0-18-12-30t-30-12q-300 0-513 213t-213 513q0 18 12 30t30 12h150q18 0 30-12t12-30q0-80 24-152 8-26-10-44z" />
<glyph unicode="&#xe908;" glyph-name="block" d="M512 84.667q140 0 241 101t101 241q0 48-21 110t-51 100l-480-480q90-72 210-72zM170 426.667q0-48 21-110t51-100l480 480q-90 72-210 72-140 0-241-101t-101-241zM512 852.667q176 0 301-125t125-301-125-301-301-125-301 125-125 301 125 301 301 125z" />
<glyph unicode="&#xe909;" glyph-name="clear" d="M810 664.667l-238-238 238-238-60-60-238 238-238-238-60 60 238 238-238 238 60 60 238-238 238 238z" />
<glyph unicode="&#xe90a;" glyph-name="create" d="M884 638.667l-78-78-160 160 78 78q12 12 30 12t30-12l100-100q12-12 12-30t-12-30zM128 202.667l472 472 160-160-472-472h-160v160z" />
<glyph unicode="&#xe90b;" glyph-name="send" d="M86 42.667v298l640 86-640 86v298l896-384z" />
<glyph unicode="&#xe90c;" glyph-name="access_alarm" d="M512 84.667q124 0 211 88t87 212-87 211-211 87-211-87-87-211 87-212 211-88zM512 768.667q160 0 272-113t112-271-112-271-272-113-272 113-112 271 112 271 272 113zM534 596.667v-224l170-100-32-52-202 120v256h64zM336 794.667l-196-164-54 64 196 164zM938 694.667l-54-66-196 166 54 64z" />
<glyph unicode="&#xe90d;" glyph-name="bluetooth_searching" d="M550 242.667l-80 82v-162zM470 690.667v-162l80 82zM670 610.667l-184-184 184-184-244-242h-42v324l-196-196-60 60 238 238-238 238 60 60 196-196v324h42zM834 652.667q62-100 62-222 0-120-66-226l-50 50q42 84 42 172t-42 172zM608 426.667l98 98q20-50 20-98 0-50-20-100z" />
<glyph unicode="&#xe90e;" glyph-name="gps_fixed" d="M512 128.667q124 0 211 87t87 211-87 211-211 87-211-87-87-211 87-211 211-87zM894 468.667h88v-84h-88q-14-126-114-226t-226-114v-88h-84v88q-126 14-226 114t-114 226h-88v84h88q14 126 114 226t226 114v88h84v-88q126-14 226-114t114-226zM512 596.667q70 0 120-50t50-120-50-120-120-50-120 50-50 120 50 120 120 50z" />
<glyph unicode="&#xe90f;" glyph-name="attach_file" d="M704 682.667h64v-490q0-98-68-167t-166-69-167 69-69 167v532q0 70 51 121t121 51 120-51 50-121v-448q0-44-31-75t-75-31-76 31-32 75v406h64v-406q0-18 13-30t31-12 30 12 12 30v448q0 44-31 76t-75 32-76-32-32-76v-532q0-70 51-121t121-51 120 51 50 121v490z" />
<glyph unicode="&#xe910;" glyph-name="attach_money" d="M504 472.667q44-12 73-24t61-33 49-53 17-76q0-62-41-101t-109-51v-92h-128v92q-66 14-109 56t-47 108h94q8-90 126-90 62 0 89 23t27 53q0 72-128 104-200 46-200 176 0 58 42 99t106 55v92h128v-94q66-16 101-60t37-102h-94q-4 90-108 90-52 0-83-22t-31-58q0-58 128-92z" />
<glyph unicode="&#xe911;" glyph-name="folder_open" d="M854 170.667v426h-684v-426h684zM854 682.667q34 0 59-26t25-60v-426q0-34-25-60t-59-26h-684q-34 0-59 26t-25 60v512q0 34 25 60t59 26h256l86-86h342z" />
<glyph unicode="&#xe912;" glyph-name="dehaze" d="M86 704.667h852v-86h-852v86zM86 490.667h852v-86h-852v86zM86 276.667h852v-84h-852v84z" />
<glyph unicode="&#xe913;" glyph-name="local_printshop" d="M768 810.667v-170h-512v170h512zM810 426.667q18 0 31 12t13 30-13 31-31 13-30-13-12-31 12-30 30-12zM682 128.667v212h-340v-212h340zM810 596.667q52 0 90-38t38-90v-256h-170v-170h-512v170h-170v256q0 52 38 90t90 38h596z" />
<glyph unicode="&#xe914;" glyph-name="check" d="M384 248.667l452 452 60-60-512-512-238 238 60 60z" />
<glyph unicode="&#xe915;" glyph-name="refresh" d="M754 668.667l100 100v-300h-300l138 138q-76 76-180 76-106 0-181-75t-75-181 75-181 181-75q74 0 145 50t97 120h88q-28-112-120-184t-210-72q-140 0-240 100t-100 242 100 242 240 100q60 0 131-29t111-71z" />
<glyph unicode="&#xe916;" glyph-name="notifications" d="M768 256.667l86-86v-42h-684v42l86 86v212q0 100 51 174t141 96v30q0 26 18 45t46 19 46-19 18-45v-30q90-22 141-96t51-174v-212zM512 0.667q-36 0-61 24t-25 60h172q0-34-26-59t-60-25z" />
<glyph unicode="&#xe917;" glyph-name="notifications_on" d="M512 0.667q-36 0-61 25t-25 59h170q0-36-24-60t-60-24zM768 468.667v-212l86-86v-42h-684v42l86 86v212q0 100 51 174t141 96v30q0 26 18 45t46 19 46-19 18-45v-30q90-22 141-96t51-174zM852 490.667q-4 72-48 152t-102 122l60 60q166-128 176-334h-86zM324 764.667q-58-42-103-122t-49-152h-86q10 206 176 334z" />
<glyph unicode="&#xe918;" glyph-name="person" d="M512 340.667q108 0 225-47t117-123v-86h-684v86q0 76 117 123t225 47zM512 426.667q-70 0-120 50t-50 120 50 121 120 51 120-51 50-121-50-120-120-50z" />
<glyph unicode="&#xe919;" glyph-name="share" d="M768 252.667q52 0 88-37t36-87q0-52-37-89t-87-37-87 37-37 89q0 20 2 28l-302 176q-38-34-88-34-52 0-90 38t-38 90 38 90 90 38q50 0 88-34l300 174q-4 20-4 30 0 52 38 90t90 38 90-38 38-90-38-90-90-38q-48 0-88 36l-300-176q4-20 4-30t-4-30l304-176q36 32 84 32z" />
<glyph unicode="&#xe91a;" glyph-name="credit_card" d="M854 596.667v86h-684v-86h684zM854 170.667v256h-684v-256h684zM854 768.667q36 0 60-25t24-61v-512q0-36-24-61t-60-25h-684q-36 0-60 25t-24 61v512q0 36 24 61t60 25h684z" />
<glyph unicode="&#xe91b;" glyph-name="dashboard" d="M554 810.667h342v-256h-342v256zM554 42.667v426h342v-426h-342zM128 42.667v256h342v-256h-342zM128 384.667v426h342v-426h-342z" />
<glyph unicode="&#xe91c;" glyph-name="delete" d="M810 768.667v-86h-596v86h148l44 42h212l44-42h148zM256 128.667v512h512v-512q0-34-26-60t-60-26h-340q-34 0-60 26t-26 60z" />
<glyph unicode="&#xe91d;" glyph-name="home" d="M426 84.667h-212v342h-128l426 384 426-384h-128v-342h-212v256h-172v-256z" />
<glyph unicode="&#xe91e;" glyph-name="lock_outline" d="M768 84.667v428h-512v-428h512zM380 682.667v-86h264v86q0 54-39 93t-93 39-93-39-39-93zM768 596.667q34 0 60-25t26-59v-428q0-34-26-59t-60-25h-512q-34 0-60 25t-26 59v428q0 34 26 59t60 25h42v86q0 88 63 151t151 63 151-63 63-151v-86h42zM512 212.667q-34 0-60 26t-26 60 26 60 60 26 60-26 26-60-26-60-60-26z" />
<glyph unicode="&#xe91f;" glyph-name="power_settings_new" d="M760 718.667q136-116 136-292 0-160-112-272t-272-112-272 112-112 272q0 72 40 158t96 134l60-60q-46-38-78-106t-32-126q0-124 87-211t211-87 211 87 87 211q0 58-32 126t-78 104zM554 810.667v-426h-84v426h84z" />
<glyph unicode="&#xe920;" glyph-name="search" d="M406 340.667q80 0 136 56t56 136-56 136-136 56-136-56-56-136 56-136 136-56zM662 340.667l212-212-64-64-212 212v34l-12 12q-76-66-180-66-116 0-197 80t-81 196 81 197 197 81 196-81 80-197q0-42-20-95t-46-85l12-12h34z" />
<glyph unicode="&#xe921;" glyph-name="settings" d="M512 276.667q62 0 106 44t44 106-44 106-106 44-106-44-44-106 44-106 106-44zM830 384.667l90-70q14-10 4-28l-86-148q-8-14-26-8l-106 42q-42-30-72-42l-16-112q-4-18-20-18h-172q-16 0-20 18l-16 112q-38 16-72 42l-106-42q-18-6-26 8l-86 148q-10 18 4 28l90 70q-2 14-2 42t2 42l-90 70q-14 10-4 28l86 148q8 14 26 8l106-42q42 30 72 42l16 112q4 18 20 18h172q16 0 20-18l16-112q38-16 72-42l106 42q18 6 26-8l86-148q10-18-4-28l-90-70q2-14 2-42t-2-42z" />
<glyph unicode="&#xe922;" glyph-name="settings_voice" d="M810 512.667q0-108-75-190t-181-98v-140h-84v140q-106 16-181 98t-75 190h72q0-94 67-156t159-62 159 62 67 156h72zM640-85.333v86h86v-86h-86zM470-85.333v86h84v-86h-84zM512 384.667q-52 0-90 38t-38 90v256q0 52 38 90t90 38 90-38 38-90v-256q0-52-38-90t-90-38zM298-85.333v86h86v-86h-86z" />
<glyph unicode="&#xe923;" glyph-name="thumb_down" d="M810 810.667h172v-512h-172v512zM640 810.667q34 0 60-26t26-60v-426q0-34-26-60l-280-282-46 46q-18 18-18 44v14l42 196h-270q-34 0-60 25t-26 59v86q0 16 6 32l130 300q20 52 78 52h384z" />
<glyph unicode="&#xe924;" glyph-name="thumb_up" d="M982 512.667v-86q0-16-6-32l-130-300q-20-52-78-52h-384q-34 0-60 26t-26 60v426q0 34 26 60l280 282 46-46q18-18 18-44v-14l-42-196h270q34 0 60-25t26-59zM42 42.667v512h172v-512h-172z" />
<glyph unicode="&#xe925;" glyph-name="fingerprint" d="M636 0.667h-6q-92 24-158 90-38 38-65 103t-27 119q0 52 38 89t92 37 93-37 39-89q0-34 25-58t63-24 64 24 26 58q0 120-91 206t-219 86q-92 0-168-47t-114-125q-24-50-24-120 0-80 28-154 6-20-14-26t-26 12q-32 82-32 168 0 78 30 138 42 90 129 144t191 54q146 0 249-99t103-237q0-52-39-88t-93-36-92 36-38 88q0 34-26 59t-64 25-63-25-25-59q0-112 80-192 56-56 140-78 18-2 14-26-4-16-20-16zM530 312.667q0-74 55-128t137-54q4 0 18 2t23 2 18-3 11-13q4-22-18-26-24-4-52-4-80 0-132 38-102 70-102 186 0 22 22 22 20 0 20-22zM416 8.667q-8 0-14 6-54 54-86 114-46 80-46 184 0 94 71 162t171 68 171-68 71-162q0-20-22-20t-22 20q0 78-58 133t-140 55-140-55-58-133q0-96 38-164 26-46 80-104 16-14 0-30-6-6-16-6zM150 524.667q-22 0-22 20 0 4 4 12 64 92 160 140 100 52 220 52t220-52q98-48 160-138 4-8 4-12 0-14-16-20t-24 8q-60 82-144 124-92 46-200 47t-200-47q-90-46-146-126-6-8-16-8zM760 748.667q-8 0-10 2-118 60-238 60-130 0-238-60-10-6-20 0t-10 18q0 14 10 20 116 64 258 64 130 0 258-64 18-10 8-28-8-12-18-12z" />
<glyph unicode="&#xe926;" glyph-name="date_range" d="M810 84.667v470h-596v-470h596zM810 768.667q34 0 60-26t26-60v-598q0-34-26-59t-60-25h-596q-36 0-61 24t-25 60v598q0 34 25 60t61 26h42v84h86v-84h340v84h86v-84h42zM726 468.667v-84h-86v84h86zM554 468.667v-84h-84v84h84zM384 468.667v-84h-86v84h86z" />
<glyph unicode="&#xe927;" glyph-name="arrow_right_alt" d="M684 468.667v128l170-170-170-170v128h-514v84h514z" />
<glyph unicode="&#xe928;" glyph-name="local_police" d="M512 896.667l-384-172v-256q0-88 29-171t81-153 122-119 152-69q82 20 152 69t122 119 81 153 29 171v256zM618 400.667l40-164-146 86-146-86 40 164-128 110 168 16 66 156 66-156 168-14z" />
<glyph unicode="&#xe929;" glyph-name="pending_actions" d="M726 426.667q-60 0-108-29t-77-77-29-108q0-58 29-107t77-77 108-28q58 0 107 28t77 77 28 107q0 60-28 108t-77 77-107 29zM796 112.667l-92 92v136h42v-118l80-80zM768 810.667h-136q-14 38-46 62t-74 24-74-24-46-62h-136q-36 0-61-25t-25-61v-640q0-34 25-59t61-25h260q-38 36-60 84h-200v640h86v-128h340v128h86v-216q44-6 86-26v242q0 36-25 61t-61 25zM512 724.667q-18 0-30 13t-12 31q0 16 12 29t30 13 30-13 12-29q0-18-12-31t-30-13z" />
<glyph unicode="&#xe92a;" glyph-name="push_pin" d="M682 554.667v214h44q16 0 29 12t13 30v0q0 18-13 30t-29 12h-428q-16 0-29-12t-13-30v0q0-18 13-30t29-12h44v-214q0-36-18-65t-47-46-63-17v0-86h254v-298l42-42 44 42v298h256v86q-34 0-63 17t-47 46-18 65z" />
<glyph unicode="&#xe92b;" glyph-name="west" d="M384 128.667l60 60-196 196h690v84h-690l196 196-60 60-298-298z" />
<glyph unicode="&#xe92c;" glyph-name="qr_code_2" d="M640 42.667h-86v86h86v-86zM554 340.667h-84v-212h84v212zM896 426.667h-86v-170h86v170zM810 512.667h-84v-86h84v86zM298 426.667h-84v-86h84v86zM214 512.667h-86v-86h86v86zM512 724.667h86v86h-86v-86zM192 746.667v-128h128v128h-128zM384 554.667h-256v256h256v-256zM192 234.667v-128h128v128h-128zM384 42.667h-256v256h256v-256zM704 746.667v-128h128v128h-128zM896 554.667h-256v256h256v-256zM810 128.667v128h-170v-86h86v-128h170v86h-86zM726 426.667h-172v-86h172v86zM554 512.667h-256v-86h86v-86h86v86h84v86zM598 554.667v86h-86v84h-86v-170h172zM288 714.667h-64v-64h64v64zM288 202.667h-64v-64h64v64zM800 714.667h-64v-64h64v64z" />
<glyph unicode="&#xe92d;" glyph-name="con-axe" d="M93.091 16.966c-0.047-15.313 5.958-29.696 16.896-40.541l24.134-23.878c10.868-10.682 25.228-16.547 40.448-16.547 15.244 0 29.58 5.888 40.192 16.314l513.908 491.823 8.029-7.936c11.148-11.008 25.786-16.5 40.448-16.5s29.3 5.492 40.448 16.524l96.419 95.348c10.985 10.845 16.966 25.274 16.896 40.564-0.047 15.22-6.051 29.51-16.896 40.192l-7.424 7.331 30.697 30.511c10.892 10.752 16.896 25.111 16.919 40.355 0 15.267-6.004 29.626-16.919 40.425l-24.064 23.831c-22.319 22.039-58.647 22.063-80.989-0.047l-31.023-30.836-7.68 7.587c-16.244 16.058-39.913 20.457-60.183 13.103-36.934 44.963-39.052 95.837-40.611 133.865-1.187 28.556-2.118 51.107-17.036 65.862-7.354 7.238-21.318 16.314-43.427 15.639-45.428-0.372-108.521-33.932-160.698-85.504-55.273-54.714-88.273-113.524-88.25-157.347 0.023-22.156 8.681-35.398 15.965-42.566 14.639-14.499 37.446-15.802 66.351-17.455 39.098-2.257 91.299-5.26 137.076-41.984-2.234-6.144-3.398-12.66-3.375-19.386 0-15.267 6.004-29.603 16.896-40.355l7.098-7.005-513.257-491.194c-10.938-10.705-16.943-24.995-16.989-40.192v0zM864.977 721.687c4.282 4.212 11.217 4.236 15.5 0l24.064-23.808c2.676-2.653 3.095-5.725 3.095-7.308-0.023-1.583-0.419-4.631-3.142-7.331l-30.999-30.836-39.215 38.796 30.697 30.487zM468.247 703.581c-13.684 0.791-32.419 1.862-36.305 4.096-0.977 0.977-2.141 4.026-2.141 9.472 0 25.181 22.993 73.332 74.426 124.23 49.78 49.199 101.423 71.843 128.349 72.052h0.326c5.725 0 9.007-1.187 9.402-1.443 2.583-4.399 3.351-22.342 3.887-35.421 1.932-46.732 4.864-117.364 66.374-178.176 9.1-8.96 23.692-8.937 32.721 0 4.305 4.236 11.217 4.212 15.476 0l120.529-119.203c2.49-2.467 3.049-5.283 3.049-7.261 0-1.583-0.396-4.631-3.072-7.284l-96.419-95.325c-4.305-4.236-11.217-4.189-15.476 0l-23.575 23.319c-0.023 0.023-0.023 0.047-0.047 0.070s-0.070 0.047-0.093 0.070l-96.768 95.721c-2.676 2.63-3.072 5.702-3.072 7.261-0.023 1.583 0.396 4.655 3.072 7.308 4.422 4.375 6.912 10.333 6.912 16.547s-2.49 12.172-6.912 16.524c-61.231 60.579-133.097 64.721-180.643 67.444v0zM142.452 23.831l513.908 491.799 39.191-38.749-513.21-491.194c-2.793-2.746-6.051-3.165-7.75-3.165s-5.004 0.419-7.75 3.142l-24.087 23.831c-2.7 2.676-3.095 5.725-3.095 7.308s0.396 4.655 2.793 7.028v0z" />
<glyph unicode="&#xe92e;" glyph-name="con-club-hammer" d="M914.572 716.172l32.209 32.209c23.040 23.040 23.040 60.556 0 83.642l-50.735 50.735c-22.319 22.342-61.347 22.365-83.665 0l-32.186-32.209-86.831 86.831c-14.545 14.545-33.862 22.598-54.458 22.598h-0.047c-20.573 0-39.936-8.029-54.505-22.598l-101.469-101.446c-30.045-30.045-30.045-78.941 0-109.009l86.854-86.854-552.425-552.425c-23.017-23.017-23.040-60.532 0-83.642l50.735-50.735c11.52-11.52 26.671-17.268 41.798-17.268 15.151 0 30.324 5.748 41.868 17.268l552.401 552.401 86.831-86.831c15.034-15.034 34.746-22.551 54.505-22.551s39.471 7.517 54.528 22.551l101.399 101.446c14.592 14.545 22.644 33.932 22.644 54.505s-8.052 39.959-22.621 54.481l-86.831 86.9zM845.289 849.873c4.817 4.748 13.079 4.748 17.827 0l50.735-50.735c4.934-4.911 4.934-12.916 0.023-17.827l-32.209-32.209-68.561 68.561 32.186 32.209zM118.807-13.754c-4.957-4.911-12.963-4.934-17.873-0.023l-50.711 50.711c-4.911 4.934-4.934 12.94-0.023 17.85l552.425 552.425 68.561-68.561-552.378-552.401zM968.495 553.263l-101.423-101.469c-11.916-11.916-31.302-11.892-43.194 0l-308.038 308.038c-11.892 11.916-11.892 31.302 0 43.194l101.469 101.446c5.772 5.772 13.452 8.96 21.597 8.96h0.023c8.145 0 15.779-3.188 21.551-8.96l103.261-103.261c0.023-0.023 0.023-0.047 0.047-0.070s0.047-0.023 0.070-0.047l204.73-204.73c5.772-5.772 8.96-13.405 8.96-21.551s-3.258-15.779-9.053-21.551v0z" />
<glyph unicode="&#xe92f;" glyph-name="con-electricity" d="M1009.315 176.524l-391.587 632.32c-0.419 0.768-0.861 1.513-1.373 2.257-23.971 34.932-62.999 55.808-104.355 55.808s-80.384-20.852-104.355-55.808c-0.489-0.721-0.954-1.466-1.373-2.234l-391.587-632.343c-0.605-1.024-1.164-2.071-1.629-3.188-1.35-3.142-13.056-31.558-13.056-58.252 0-73.1 57.437-132.538 128-132.538h768c70.563 0 128 59.462 128 132.538 0 26.671-11.706 55.11-13.056 58.252-0.465 1.117-1.001 2.164-1.629 3.188v0zM896 29.091h-768c-44.916 0-81.455 38.563-81.455 85.993 0 13.545 5.818 31.162 8.751 38.586l391.354 631.971c0.047 0.070 0.093 0.14 0.14 0.209 15.337 21.644 39.61 34.513 65.21 34.513s49.873-12.87 65.21-34.49c0.047-0.070 0.093-0.14 0.14-0.209l391.354-631.971c2.932-7.424 8.751-25.041 8.751-38.586 0-47.453-36.538-86.016-81.455-86.016v0zM651.636 448h-113.92l20.713 207.127c1.071 10.705-5.329 20.759-15.5 24.297-10.147 3.514-21.411-0.349-27.229-9.402l-209.455-325.818c-4.608-7.168-4.934-16.268-0.861-23.761 4.096-7.424 11.916-12.079 20.433-12.079h113.92l-20.713-207.127c-1.071-10.705 5.329-20.759 15.5-24.297 2.513-0.884 5.097-1.303 7.657-1.303 7.75 0 15.197 3.887 19.572 10.682l209.455 325.818c4.608 7.168 4.934 16.268 0.861 23.738-4.096 7.471-11.916 12.125-20.433 12.125v0zM474.973 192.954l13.638 136.355c0.652 6.54-1.489 13.079-5.911 17.943-4.399 4.887-10.682 7.657-17.245 7.657h-97.001l134.028 208.5-13.638-136.355c-0.652-6.54 1.489-13.079 5.911-17.943 4.399-4.887 10.682-7.657 17.245-7.657h97.001l-134.028-208.5z" />
<glyph unicode="&#xe930;" glyph-name="con-helmet" d="M840.006 250.089c-4.119-2.025-7.82-4.073-11.45-6.097-25.623-14.127-52.131-28.719-316.556-28.719s-290.932 14.592-316.556 28.719c-3.631 2.025-7.331 4.049-11.45 6.097-11.497 5.702-25.507 1.001-31.185-10.519-5.725-11.52-1.024-25.484 10.496-31.185 3.468-1.722 6.586-3.444 9.681-5.143 33.606-18.525 62.604-34.513 339.014-34.513s305.408 15.988 338.991 34.49c3.095 1.699 6.214 3.421 9.681 5.143 11.52 5.725 16.221 19.665 10.496 31.185-5.679 11.543-19.665 16.244-31.162 10.543v0zM977.455 304.198v73.984c0 212.806-88.855 386.095-232.727 457.332v8.122c0 38.493-31.325 69.818-69.818 69.818h-82.758c-16.151 27.695-45.824 46.545-80.151 46.545s-64-18.851-80.151-46.545h-82.758c-38.493 0-69.818-31.325-69.818-69.818v-8.099c-143.849-71.261-232.727-244.55-232.727-457.356v-73.984c-24.925-8.564-46.545-29.836-46.545-56.343 0-5.446 1.908-10.705 5.399-14.918 11.427-13.708 41.146-57.856 41.146-96.768 0-56.576 25.879-96.908 79.174-123.322 3.468-1.722 7.261-3.77 11.543-6.074 42.659-22.947 131.468-70.772 374.737-70.772s332.079 47.825 374.737 70.796c4.282 2.304 8.076 4.352 11.567 6.074 53.271 26.415 79.151 66.746 79.151 123.299 0 46.545 40.751 96.303 41.193 96.815 3.444 4.166 5.353 9.449 5.353 14.871 0 26.531-21.62 47.779-46.545 56.343v0zM930.909 136.192c0-39.191-15.43-62.836-53.271-81.594-3.887-1.932-8.192-4.236-12.986-6.819-39.308-21.178-121.111-65.233-352.652-65.233s-313.344 44.055-352.652 65.233c-4.794 2.583-9.1 4.887-12.963 6.796-37.865 18.758-53.295 42.403-53.295 81.594 0 48.873-29.44 95.907-44.032 116.201 4.096 4.422 12.567 9.449 20.759 9.449 12.87 0 23.273 10.426 23.273 23.273v93.091c0 184.134 70.54 334.941 186.182 404.41v-125.137c0-12.847 10.403-23.273 23.273-23.273s23.273 10.426 23.273 23.273v186.182c0 12.823 10.426 23.273 23.273 23.273h69.818v-256c0-12.847 10.403-23.273 23.273-23.273s23.273 10.426 23.273 23.273v256c0 25.67 20.876 46.545 46.545 46.545s46.545-20.876 46.545-46.545v-256c0-12.847 10.403-23.273 23.273-23.273s23.273 10.426 23.273 23.273v256h69.818c12.847 0 23.273-10.449 23.273-23.273v-186.182c0-12.847 10.403-23.273 23.273-23.273s23.273 10.426 23.273 23.273v125.114c115.619-69.446 186.182-220.276 186.182-404.387v-93.091c0-12.847 10.403-23.273 23.273-23.273 8.192 0 16.663-5.027 20.759-9.425-14.592-20.317-44.032-67.351-44.032-116.201v0z" />
<glyph unicode="&#xe931;" glyph-name="con-helmet-goggles" d="M15.965 356.096c5.865-1.955 147.898-47.732 472.762-47.732s466.897 45.777 472.762 47.732c9.519 3.165 15.965 12.055 15.965 22.086v69.818c0 8.82-4.98 16.873-12.87 20.829l-33.978 16.966c-6.493 160.209-119.738 310.831-281.204 374.481-7.494 30.441-34.839 53.178-67.584 53.178h-69.818v23.273c0 12.87-10.403 23.273-23.273 23.273s-23.273-10.403-23.273-23.273v-23.273h-69.818c-32.745 0-60.090-22.737-67.607-53.178-161.466-63.651-274.711-214.249-281.204-374.481l-33.978-16.966c-7.889-3.956-12.87-12.009-12.87-20.829v-69.818c0.023-10.054 6.447-18.921 15.988-22.086v0zM46.545 433.617l33.676 16.849c7.889 3.956 12.87 12.009 12.87 20.829 0 140.358 94.231 274.944 232.727 337.734v-58.484c0-12.87 10.403-23.273 23.273-23.273s23.273 10.403 23.273 23.273v93.091c0 12.847 10.426 23.273 23.273 23.273h69.818v-162.909c0-12.87 10.403-23.273 23.273-23.273s23.273 10.403 23.273 23.273v162.909h69.818c12.847 0 23.273-10.426 23.273-23.273v-93.091c0-12.87 10.403-23.273 23.273-23.273s23.273 10.403 23.273 23.273v58.461c138.496-62.79 232.727-197.376 232.727-337.734 0-8.82 4.98-16.873 12.87-20.829l33.676-16.849v-37.748c-44.94-11.404-185.949-40.96-442.182-40.96s-397.242 29.556-442.182 40.96v37.772zM837.818 471.273c0 12.87-10.403 23.273-23.273 23.273h-651.636c-12.87 0-23.273-10.403-23.273-23.273s10.403-23.273 23.273-23.273h651.636c12.87 0 23.273 10.403 23.273 23.273v0zM23.273 75.636h69.818c0-82.199 57.437-139.636 139.636-139.636h93.091c96.116 0 132.724 71.61 139.124 111.174 4.189 13.312 11.613 28.463 23.785 28.463s19.619-15.127 23.785-28.463c6.377-39.564 43.008-111.174 139.124-111.174h93.091c82.199 0 139.636 57.437 139.636 139.636h69.818c12.87 0 23.273 10.403 23.273 23.273v93.091c0 12.87-10.403 23.273-23.273 23.273h-82.781c-16.151 27.695-45.824 46.545-80.128 46.545h-605.091c-34.304 0-63.977-18.851-80.128-46.545h-82.781c-12.87 0-23.273-10.403-23.273-23.273v-93.091c0-12.87 10.403-23.273 23.273-23.273v0zM930.909 168.727v-46.545h-46.545v46.545h46.545zM186.182 215.273h605.091c25.67 0 46.545-20.899 46.545-46.592v-93.044c0-57.437-35.654-93.091-93.091-93.091h-93.091c-79.756 0-92.183 65.699-93.324 73.053-0.163 1.164-0.419 2.327-0.745 3.421-16.407 54.947-50.176 63.162-68.841 63.162s-52.433-8.215-68.841-63.162c-0.326-1.024-0.559-2.234-0.721-3.281-1.164-7.494-13.591-73.216-93.347-73.216h-93.091c-57.437 0-93.091 35.654-93.091 93.091v93.044c0 25.716 20.876 46.615 46.545 46.615v0zM46.545 168.727h46.545v-46.545h-46.545v46.545z" />
<glyph unicode="&#xe932;" glyph-name="con-jack-hammer" d="M907.636 866.909c-12.847 0-23.273-10.403-23.273-23.273v-23.273h-139.636v65.792c0 40.704-36.538 73.844-81.455 73.844h-349.091c-44.916 0-81.455-33.14-81.455-73.844v-65.792h-139.636v23.273c0 12.87-10.426 23.273-23.273 23.273s-23.273-10.403-23.273-23.273v-186.182c0-12.87 10.426-23.273 23.273-23.273s23.273 10.403 23.273 23.273v23.273h139.636v-23.273c0-43.078 26.74-69.818 69.818-69.818h23.273v-69.818c0-23.133 20.783-52.108 46.545-64.093v-215.18c0-12.87 10.426-23.273 23.273-23.273h23.273v-256c0-12.87 10.426-23.273 23.273-23.273h93.091c12.847 0 23.273 10.403 23.273 23.273v256h23.273c12.847 0 23.273 10.403 23.273 23.273v215.18c25.763 11.985 46.545 40.96 46.545 64.093v69.818h23.273c43.078 0 69.818 26.74 69.818 69.818v23.273h139.636v-23.273c0-12.87 10.426-23.273 23.273-23.273s23.273 10.403 23.273 23.273v186.182c0 12.87-10.426 23.273-23.273 23.273v0zM93.091 727.273v46.545h139.636v-46.545h-139.636zM512-17.455h-46.545v232.727h46.545v-232.727zM418.909 261.818v186.182h139.636v-186.182h-139.636zM698.182 657.455c0-17.175-6.097-23.273-23.273-23.273h-46.545c-12.847 0-23.273-10.403-23.273-23.273v-92.998c-0.512-7.238-15.476-23.366-23.273-23.366h-186.182c-7.82 0-22.761 16.128-23.273 23.273v93.091c0 12.87-10.426 23.273-23.273 23.273h-46.545c-17.175 0-23.273 6.097-23.273 23.273v228.701c0 14.801 15.988 27.299 34.909 27.299h349.091c18.921 0 34.909-12.497 34.909-27.299v-228.701zM744.727 727.273v46.545h139.636v-46.545h-139.636zM488.727 866.909c-12.847 0-23.273-10.403-23.273-23.273v-139.636c0-12.87 10.426-23.273 23.273-23.273s23.273 10.403 23.273 23.273v139.636c0 12.87-10.426 23.273-23.273 23.273v0zM581.818 866.909c-12.847 0-23.273-10.403-23.273-23.273v-139.636c0-12.87 10.426-23.273 23.273-23.273s23.273 10.403 23.273 23.273v139.636c0 12.87-10.426 23.273-23.273 23.273v0zM395.636 866.909c-12.847 0-23.273-10.403-23.273-23.273v-139.636c0-12.87 10.426-23.273 23.273-23.273s23.273 10.403 23.273 23.273v139.636c0 12.87-10.426 23.273-23.273 23.273v0zM751.546 254.999l-93.091-93.091c-9.1-9.1-9.1-23.808 0-32.908l30.092-30.092-76.637-76.637c-9.1-9.1-9.1-23.808 0-32.908 4.538-4.538 10.496-6.819 16.454-6.819s11.916 2.281 16.454 6.819l93.091 93.091c9.1 9.1 9.1 23.808 0 32.908l-30.092 30.092 76.637 76.637c9.1 9.1 9.1 23.808 0 32.908s-23.808 9.1-32.908 0v0zM288.908 98.909l30.092 30.092c9.1 9.1 9.1 23.808 0 32.908l-93.091 93.091c-9.1 9.1-23.808 9.1-32.908 0s-9.1-23.808 0-32.908l76.637-76.637-30.092-30.092c-9.1-9.1-9.1-23.808 0-32.908l93.091-93.091c4.538-4.538 10.496-6.819 16.454-6.819s11.916 2.281 16.454 6.819c9.1 9.1 9.1 23.808 0 32.908l-76.637 76.637z" />
<glyph unicode="&#xe933;" glyph-name="con-pliers" d="M1012.806 848.012c-6.982 4.189-15.616 4.445-22.831 0.721l-161.466-84.224 84.247 161.466c3.77 7.238 3.491 15.895-0.745 22.831-4.212 6.959-11.753 11.194-19.898 11.194-56.739 0-134.47 0-195.258-45.708-66.607-50.060-101.888-140.381-111.36-167.633-38.912-25.693-65.024-66.746-71.703-112.477-116.713-0.233-218.996-4.399-319.697-76.753-158.301-113.78-194.095-240.78-194.095-259.398 0-20.224 11.241-34.071 21.039-43.869 16.966-16.966 37.329-27.345 55.878-28.486 1.233-0.070 2.444-0.116 3.654-0.116 14.592 0 27.578 5.492 37.725 15.988 4.724 4.841 8.634 10.682 11.706 17.571 0.512 1.187 52.922 119.552 172.823 191.511 84.48 50.641 207.802 44.311 252.998 39.866 4.073-44.963 9.379-167.215-41.239-251.625-71.959-119.901-190.301-172.381-191.581-172.94-6.703-2.932-12.591-6.865-17.408-11.567-11.404-11.055-16.919-25.367-15.942-41.356 1.094-18.572 11.473-38.959 28.486-55.948 9.775-9.798 23.622-21.015 43.869-21.015 18.641 0 145.664 35.793 259.398 194.095 72.378 100.724 76.521 203.031 76.777 319.767 45.94 6.609 85.783 32.326 110.988 68.957 28.3 9.449 121.647 44.753 170.659 113.292 44.172 61.766 44.172 139.334 44.172 195.98 0 8.099-4.259 15.639-11.194 19.875v0zM278.877 490.496c-133.19-79.919-189.3-207.593-191.511-212.713-0.721-1.583-1.513-2.863-2.467-3.84-1.303-1.35-2.327-2.118-5.12-1.839-6.935 0.442-17.315 6.423-25.833 14.941-7.052 7.052-7.377 9.728-7.447 9.728v-0.023c0.116 1.047 24.879 115.13 174.778 222.836 89.088 64.023 180.061 67.817 292.608 68.026 2.467-17.129 7.587-33.396 14.988-48.384-62.511 3.165-169.076-0.209-249.996-48.733v0zM583.61 157.254c-107.683-149.876-221.789-174.639-221.603-174.708-0.977 0-3.561 0-10.961 7.377-8.518 8.518-14.522 18.897-14.941 25.856-0.163 2.63 0.489 3.793 1.908 5.167 0.884 0.861 2.118 1.629 3.537 2.281 5.376 2.327 133.004 58.484 212.945 191.651 48.687 81.152 52.62 187.532 49.85 249.414 14.685-7.098 30.557-12.032 47.267-14.452-0.209-112.5-3.98-203.497-68.003-292.585v0zM674.909 494.545c-64.163 0-116.364 52.201-116.364 116.364 0 41.379 22.295 80.012 58.182 100.794 0.861 0.489 1.373 1.303 2.141 1.885 1.559 1.187 3.142 2.304 4.375 3.863 1.071 1.35 1.652 2.886 2.397 4.399 0.535 1.094 1.35 1.955 1.699 3.165 0.303 1.024 32.372 103.121 97.513 152.087 37.12 27.904 84.62 34.42 128.652 35.91l-100.492-192.582c-0.209-0.396-0.233-0.838-0.396-1.233-0.396-0.884-0.605-1.792-0.908-2.7-0.559-1.769-0.931-3.537-1.047-5.353-0.070-0.977-0.070-1.932 0-2.909 0.116-1.885 0.489-3.677 1.071-5.469 0.256-0.861 0.442-1.699 0.791-2.513 1.14-2.56 2.607-4.98 4.678-7.028 21.993-21.969 34.095-51.2 34.095-82.269-0.023-64.209-52.224-116.41-116.387-116.41v0zM941.964 659.2c-26.973-37.725-72.634-64.186-107.311-80.105 2.048 10.31 3.165 20.922 3.165 31.814 0 33.047-9.844 64.582-28.044 91.322l167.238 87.249c-1.466-44.265-7.773-92.137-35.049-130.281v0zM674.909 680.727c-38.493 0-69.818-31.325-69.818-69.818s31.325-69.818 69.818-69.818c38.493 0 69.818 31.325 69.818 69.818s-31.325 69.818-69.818 69.818v0zM674.909 587.636c-12.823 0-23.273 10.426-23.273 23.273s10.449 23.273 23.273 23.273c12.823 0 23.273-10.426 23.273-23.273s-10.449-23.273-23.273-23.273v0z" />
<glyph unicode="&#xe934;" glyph-name="con-roller" d="M930.909 820.364v46.545c0 51.34-41.751 93.091-93.091 93.091h-698.182c-51.34 0-93.091-41.751-93.091-93.091h-23.273c-12.847 0-23.273-10.426-23.273-23.273v-93.091c0-12.847 10.426-23.273 23.273-23.273h23.273c0-51.34 41.751-93.091 93.091-93.091h698.182c51.34 0 93.091 41.751 93.091 93.091v46.545c25.67 0 46.545-20.876 46.545-46.545v-93.091c0-25.67-20.876-46.545-46.545-46.545h-372.364c-51.34 0-93.091-41.751-93.091-93.091v-186.182h-23.273c-12.847 0-23.273-10.426-23.273-23.273v-279.273c0-38.493 31.325-69.818 69.818-69.818s69.818 31.325 69.818 69.818v279.273c0 12.847-10.426 23.273-23.273 23.273h-23.273v186.182c0 25.67 20.876 46.545 46.545 46.545h372.364c51.34 0 93.091 41.751 93.091 93.091v93.091c0 51.34-41.751 93.091-93.091 93.091v0zM884.364 727.273c0-25.67-20.876-46.545-46.545-46.545h-698.182c-25.67 0-46.545 20.876-46.545 46.545v139.636c0 25.67 20.876 46.545 46.545 46.545h698.182c25.67 0 46.545-20.876 46.545-46.545v-139.636zM512 5.818c0-12.823-10.449-23.273-23.273-23.273s-23.273 10.449-23.273 23.273v256h46.545v-256z" />
<glyph unicode="&#xe935;" glyph-name="con-saw" d="M39.727 222.092l10.38 10.38 248.064-244.666-12.102-12.102c-9.1-9.1-9.1-23.808 0-32.908 4.538-4.538 10.496-6.819 16.454-6.819s11.916 2.281 16.454 6.819l186.182 186.182c4.399 4.375 6.842 10.287 6.842 16.477v116.364h116.364c12.847 0 23.273 10.403 23.273 23.273v69.818h69.818c12.847 0 23.273 10.403 23.273 23.273v69.818h69.818c12.847 0 23.273 10.426 23.273 23.273v69.818h69.818c12.847 0 23.273 10.426 23.273 23.273v69.818h69.818c9.402 0 17.897 5.679 21.504 14.359 3.607 8.704 1.606 18.711-5.050 25.367l-232.727 232.727c-9.1 9.1-23.808 9.1-32.908 0l-402.548-402.548c-28.765 25.088-68.445 24.227-96.349-3.258l-245.807-245.807c-9.1-9.1-9.1-23.808 0-32.908s23.785-9.123 32.884-0.023v0zM907.636 680.727c-12.847 0-23.273-10.426-23.273-23.273v-69.818h-69.818c-12.847 0-23.273-10.426-23.273-23.273v-69.818h-69.818c-12.847 0-23.273-10.426-23.273-23.273v-69.818h-69.818c-12.847 0-23.273-10.403-23.273-23.273v-69.818h-93.091v23.273c0 6.167-2.444 12.079-6.796 16.431l-53.318 53.481 385.932 385.908 106.729-106.729h-36.911zM768 857.274l36.911-36.911-385.862-385.862-36.841 36.98 385.792 385.792zM285.44 467.805c10.729 10.519 24.041 10.566 34.583 0.14l11.729-11.776c0.372-0.419 0.489-0.954 0.884-1.35s0.908-0.512 1.327-0.884l68.049-68.282c0.186-0.209 0.256-0.465 0.442-0.675 0.186-0.186 0.465-0.256 0.652-0.442l62.348-62.534v-166.935l-134.353-134.353-248.064 244.666 202.403 202.426zM169.728 245.364l139.636-139.636c4.538-4.538 10.496-6.819 16.454-6.819s11.916 2.281 16.454 6.819l46.545 46.545c4.375 4.352 6.819 10.263 6.819 16.454v93.091c0 6.191-2.444 12.102-6.819 16.454l-93.091 93.091c-9.1 9.1-23.808 9.1-32.908 0l-93.091-93.091c-9.1-9.1-9.1-23.808 0-32.908v0zM279.273 322.001l69.818-69.818v-73.821l-23.273-23.273-106.729 106.729 60.183 60.183z" />
<glyph unicode="&#xe936;" glyph-name="con-spanner" d="M83.433 85.201c-18.083-18.129-18.083-47.639 0.070-65.862 9.076-8.983 20.969-13.475 32.861-13.475s23.785 4.492 32.861 13.475c0.023 0.023 0.047 0.047 0.070 0.093 18.083 18.129 18.083 47.639 0.047 65.745-17.594 17.711-48.384 17.687-65.908 0.023v0zM961.652 752.524l-101.748-101.795c-16.244-16.244-65.466-3.351-107.008 38.167-41.542 41.542-54.412 90.74-38.167 107.008l101.772 101.725c9.1 9.076 9.1 23.808 0 32.908-29.533 29.58-76.753 37.283-133.004 21.644-49.641-13.777-101.26-44.823-141.591-85.178-33.745-33.722-50.828-78.173-50.316-127.581 0.023-0.512-0.186-1.001-0.116-1.536 0-0.093 0.093-0.698 0.186-1.769 0.14-4.934 0.303-9.891 0.791-14.918 1.001-38.609-4.422-137.053-77.731-210.362l-381.58-381.58c-21.388-21.388-33.164-49.827-33.164-80.058s11.776-58.671 33.164-80.035c22.063-22.063 51.037-33.094 80.035-33.094s57.996 11.031 80.058 33.094l381.58 381.58c92.113 92.090 225.769 76.847 227.119 76.753 0.326-0.047 0.628 0.093 0.977 0.070 0.861 0 1.745-0.163 2.583-0.163 47.639 0 91.462 16.524 125.463 50.525v0c81.617 81.687 126.65 211.503 63.581 274.595-8.704 8.727-24.157 8.727-32.884 0v0zM541.929 383.651l-381.58-381.58c-25.996-25.996-68.305-26.019-94.301 0-12.614 12.591-19.526 29.324-19.526 47.127s6.935 34.537 19.526 47.127l381.58 381.58c43.497 43.497 66.537 93.696 78.685 138.752 16.826-30.767 39.191-60.602 66.444-87.878 27.951-27.951 57.763-49.943 87.994-66.467-45.056-12.125-95.302-35.142-138.822-78.662v0zM898.071 510.836c-25.67-25.67-59.439-37.423-96.675-36.561-3.281 0.279-7.61 0.535-13.172 0.721-52.527 5.329-110.708 34.909-162.537 86.714-45.405 45.405-75.543 98.095-84.852 148.34-0.721 3.817-1.28 7.866-1.769 12.032-0.256 9.379-0.791 16.128-1.117 19.386-0.093 29.766 8.052 63.767 36.911 92.625 34.863 34.863 79.011 61.556 121.158 73.239 14.778 4.096 28.556 6.121 40.89 6.121 9.612 0 18.339-1.233 25.972-3.654l-81.012-80.966c-19.759-19.735-25.391-49.804-15.895-84.62 8.262-30.278 27.462-61.58 54.063-88.204 59.136-59.136 135.028-75.869 172.823-38.191l81.082 81.105c14.895-46.22-16.361-128.535-75.869-188.090v0z" />
<glyph unicode="&#xe937;" glyph-name="con-square" d="M1000.727 261.818h-628.364v674.909c0 12.847-10.403 23.273-23.273 23.273h-325.818c-12.87 0-23.273-10.426-23.273-23.273v-977.455c0-12.847 10.403-23.273 23.273-23.273h977.455c12.87 0 23.273 10.426 23.273 23.273v279.273c0 12.847-10.403 23.273-23.273 23.273v0zM46.545 913.455h279.273v-651.636h-279.273v93.091h162.909c12.87 0 23.273 10.426 23.273 23.273s-10.403 23.273-23.273 23.273h-162.909v93.091h93.091c12.87 0 23.273 10.426 23.273 23.273s-10.403 23.273-23.273 23.273h-93.091v93.091h162.909c12.87 0 23.273 10.426 23.273 23.273s-10.403 23.273-23.273 23.273h-162.909v93.091h93.091c12.87 0 23.273 10.426 23.273 23.273s-10.403 23.273-23.273 23.273h-93.091v93.091zM977.455-17.455h-930.909v232.727h930.909v-232.727zM814.545 29.091c38.493 0 69.818 31.325 69.818 69.818s-31.325 69.818-69.818 69.818c-38.493 0-69.818-31.325-69.818-69.818s31.325-69.818 69.818-69.818v0zM814.545 122.182c12.847 0 23.273-10.449 23.273-23.273s-10.426-23.273-23.273-23.273c-12.847 0-23.273 10.449-23.273 23.273s10.426 23.273 23.273 23.273v0z" />
<glyph unicode="&#xe938;" glyph-name="con-tape" d="M228.817 133.911c36.841-37.329 85.83-58.019 137.914-58.275h1.024c52.503 0 101.818 20.689 138.915 58.275l266.636 270.196c0.14 0.14 0.233 0.326 0.372 0.465 0.070 0.070 0.163 0.093 0.233 0.163l157.766 172.497 52.596-52.596c4.538-4.538 10.496-6.819 16.454-6.819s11.916 2.281 16.454 6.819c9.1 9.1 9.1 23.808 0 32.908l-69.818 69.818c-0.14 0.14-0.303 0.163-0.442 0.303-0.14 0.116-0.163 0.303-0.303 0.419-1.071 0.977-2.397 1.42-3.584 2.164-1.303 0.815-2.49 1.815-3.887 2.327-1.466 0.559-3.002 0.628-4.515 0.884-1.42 0.233-2.793 0.652-4.236 0.628-1.536-0.023-2.979-0.535-4.468-0.861-1.42-0.326-2.839-0.442-4.212-1.024-1.443-0.628-2.653-1.699-3.98-2.653-1.094-0.768-2.327-1.21-3.305-2.188-0.116-0.116-0.163-0.303-0.279-0.419-0.14-0.14-0.303-0.186-0.442-0.326l-132.422-144.803c-2.281 3.561-4.934 6.959-8.006 10.077l-266.612 270.127c-37.143 37.632-86.481 58.345-139.008 58.345h-0.419c-52.294-0.093-101.469-20.806-138.449-58.298l-171.427-173.731c-76.381-77.405-76.381-203.311 0.023-280.692l171.427-173.731zM90.531 555.636l171.427 173.754c28.183 28.579 65.629 44.358 105.402 44.428h0.326c39.959 0 77.545-15.802 105.868-44.497l266.612-270.127c6.074-6.167 6.074-16.128 0.047-22.319l-0.349-0.372-266.356-269.894c-28.276-28.672-65.815-44.428-105.798-44.428h-0.768c-39.61 0.209-76.916 15.988-105.007 44.428l-171.404 173.708c-58.601 59.369-58.601 155.951 0 215.319v0zM372.364 261.818c102.656 0 186.182 83.503 186.182 186.135 0 102.679-83.526 186.228-186.205 186.228-102.656 0-186.159-83.526-186.159-186.182s83.526-186.182 186.182-186.182v0zM372.34 587.636c77.009 0 139.66-62.65 139.66-139.683 0-76.963-62.627-139.59-139.636-139.59s-139.636 62.627-139.636 139.636c0 77.009 62.627 139.636 139.613 139.636v0z" />
<glyph unicode="&#xe939;" glyph-name="con-u-bend" d="M1000.727 960h-279.273c-12.87 0-23.273-10.403-23.273-23.273v-139.636c0-12.87 10.403-23.273 23.273-23.273h23.273v-488.727c0-64.163-52.201-116.364-116.364-116.364-56.18 0-103.191 40.052-114.013 93.091h20.922c12.87 0 23.273 10.403 23.273 23.273v139.636c0 12.87-10.403 23.273-23.273 23.273h-23.273v23.273c0 166.819-135.727 302.545-302.545 302.545h-23.273v23.273c0 12.87-10.403 23.273-23.273 23.273h-139.636c-12.87 0-23.273-10.403-23.273-23.273v-279.273c0-12.87 10.403-23.273 23.273-23.273h139.636c12.87 0 23.273 10.403 23.273 23.273v23.273h23.273c38.493 0 69.818-31.325 69.818-69.818v-23.273h-23.273c-12.87 0-23.273-10.403-23.273-23.273v-139.636c0-12.87 10.403-23.273 23.273-23.273h24.46c12.055-181.644 163.258-325.818 347.904-325.818 192.489 0 349.091 156.602 349.091 349.091v488.727h23.273c12.87 0 23.273 10.403 23.273 23.273v139.636c0 12.87-10.403 23.273-23.273 23.273v0zM139.636 541.091h-93.091v232.727h93.091v-232.727zM209.455 587.636h-23.273v139.636h23.273c141.149 0 256-114.851 256-256v-23.273h-139.636v23.273c0 64.163-52.201 116.364-116.364 116.364v0zM279.273 401.455h232.727v-93.091h-232.727v93.091zM930.909 285.091c0-166.819-135.727-302.545-302.545-302.545-158.953 0-289.42 123.322-301.359 279.273h140.311c11.357-78.801 79.151-139.636 161.047-139.636 89.809 0 162.909 73.1 162.909 162.909v488.727h139.636v-488.727zM977.455 820.364h-232.727v93.091h232.727v-93.091z" />
<glyph unicode="&#xe93a;" glyph-name="con-wheel-barrow" d="M1000.727 680.727h-139.636c-9.728 0-18.432-6.051-21.83-15.197l-28.858-77.894h-26.065c-21.178 51.293-71.796 85.923-129.327 85.923-9.007 0-17.897-0.838-26.601-2.467-32.256 62.208-98.211 102.726-170.24 102.726-71.983 0-136.541-39.028-169.263-100.841-4.305 0.396-8.657 0.582-13.033 0.582-57.507 0-108.125-34.63-129.327-85.923h-76.73c-8.89 0-16.989-5.050-20.899-13.056-3.887-7.983-2.909-17.478 2.537-24.506l235.311-302.895-18.991-5.585c-18.735 39.331-58.508 66.769-104.867 66.769-64.163 0-116.364-52.201-116.364-116.364 0-5.143 0.861-10.031 1.513-15.011l-31.348-9.216c-12.335-3.607-19.386-16.547-15.756-28.881 2.979-10.147 12.265-16.71 22.319-16.71 2.164 0 4.375 0.303 6.586 0.954l33.373 9.821c20.317-34.141 57.181-57.321 99.7-57.321 64.163 0 116.364 52.201 116.364 116.364 0 1.489-0.396 2.886-0.442 4.375l165.516 48.687 38.028-91.439c1.233-3.188 31.372-77.987 108.451-77.987 77.103 0 107.148 74.659 108.544 78.22l177.897 480.326h123.439c12.847 0 23.273 10.426 23.273 23.273s-10.426 23.273-23.273 23.273v0zM93.091 192c0 38.493 31.325 69.818 69.818 69.818 25.181 0 47.104-13.521 59.392-33.583l-129.024-37.958c-0.023 0.605-0.186 1.14-0.186 1.722v0zM162.909 122.182c-21.155 0-39.936 9.658-52.736 24.576l121.6 35.77c-4.678-34.001-33.606-60.346-68.864-60.346v0zM275.875 627.014c7.261 0 14.406-0.791 21.225-2.374 11.543-2.839 23.971 4.236 27.601 15.313 22.458 53.085 74.659 87.296 133.469 87.296 60.044 0 114.432-36.98 135.377-92.044 4.492-11.823 17.594-17.897 29.556-13.638 10.147 3.607 20.876 5.446 31.907 5.446 31.372 0 59.671-15.313 76.73-39.377h-532.573c17.059 24.087 45.359 39.377 76.707 39.377v0zM117.364 541.091h675.817l-60.253-162.653-398.22-117.132-217.344 279.785zM655.919 170.543c-0.815-1.978-20.061-48.361-65.094-48.361s-64.349 46.522-65.28 48.849l-36.282 87.249 223.511 65.745-56.855-153.484z" />
<glyph unicode="&#xe93b;" glyph-name="con-workman" d="M456.937 718.871c14.452-9.844 29.882-14.871 45.359-14.871 5.213 0 10.449 0.559 15.639 1.722 25.67 5.679 48.78 24.739 66.839 55.156 32.279 54.295 25.321 108.311-17.664 137.635-14.476 9.914-29.091 14.941-43.473 14.941-23.087 0-56.46-9.868-84.41-56.879-32.303-54.319-25.344-108.381 17.711-137.705v0zM479.232 832.791c13.475 22.644 28.416 34.118 44.404 34.118 4.748 0 10.682-2.351 17.199-6.819 31.325-21.341 13.172-59.857 3.933-75.427-11.031-18.525-24.483-30.72-36.911-33.489-7.959-1.699-16.035 0.279-24.692 6.167-31.348 21.341-13.196 59.857-3.933 75.45v0zM217.53 97.071c1.35 1.42 33.071 35.049 38.214 86.528l4.422 32.954c1.699 12.73-7.238 24.436-19.968 26.159-12.8 1.769-24.46-7.215-26.182-19.968l-4.515-33.722c-3.561-35.77-25.46-59.601-25.856-60.020l-129.606-140.079c-4.236-4.538-7.215-6.121-7.494-7.005 0.209 0.954 1.536 4.049 5.795 8.588 0.535 0.582 1.047 1.21 1.536 1.815l102.377 135.401c1.21 1.629 29.929 40.541 29.929 94.534v62.836c0 12.87-10.426 23.273-23.273 23.273s-23.273-10.403-23.273-23.273v-62.813c0-38.028-20.48-66.444-20.573-66.537l-101.655-134.423c-9.263-10.217-14.895-20.852-16.756-31.558-2.63-15.244 2.49-29.766 14.429-40.89 7.913-7.354 18.874-12.777 31.325-12.777 12.893 0 27.392 5.795 41.728 21.178l129.396 139.799zM850.455 167.052c-25.949 30.767-63.93 48.221-105.728 48.221-3.747 0-7.331-0.652-11.008-0.954l-70.842 54.551c-24.297 18.641-59.229 14.080-78.010-10.077l-74.566 57.344c1.001 3.863 1.699 7.82 1.699 11.985v292.096c0 57.53-70.819 107.683-83.782 116.387-8.052 6.656-48.035 37.213-102.4 37.213h-140.195c-15.988-0.396-48.477-10.077-69.423-44.8l-62.743-115.503c-4.515-7.447-6.912-16.012-6.912-24.739 0-26.298 21.388-47.686 47.709-47.686 11.753 0 22.9 4.352 31.511 11.939l46.871-36.026c-18.083-28.253-32.815-54.272-33.001-83.572-0.279-48.547 33.35-88.739 66.281-121.693 0.419-0.419 0.838-0.815 1.28-1.187l134.842-115.945c0.093-0.093 10.077-10.054 11.799-23.319l16.198-179.456c0-33.42 19.642-55.831 48.873-55.831 22.505 0 46.545 14.662 46.545 55.831v181.551c0 12.94 0 32.489-12.986 52.015-0.559 0.838-1.187 1.629-1.839 2.42l-120.553 138.287c-4.305 7.936-4.305 13.033-4.282 25.809 0 2.257 0.186 4.538 0.559 6.865l90.065-69.236 0.233-3.607c2.49-26.787 22.086-45.521 47.593-45.521 4.655 0 9.076 0.884 13.335 2.118l78.895-60.672-1.652-2.164c-9.076-11.823-13.009-26.508-11.078-41.263 1.955-14.825 9.542-27.951 21.481-37.097l43.66-33.164c-58.484-25.926-96.908-84.131-96.908-148.945 0-12.87 10.426-23.273 23.273-23.273h465.455c12.847 0 23.273 10.403 23.273 23.273 0.023 102.33-73.914 189.952-173.521 207.825v0zM197.446 556.637l-44.358 34.118 34.025 50.479c3.98 5.306 15.22 16.221 24.529 16.221h48.896l-63.092-100.817zM414.394 198.54c4.189-6.982 4.515-14.592 4.515-25.158v-181.551c0-4.515-0.442-7.354-0.861-9.030-0.605 1.35-1.489 4.561-1.559 11.124l-16.407 182.458c-4.026 30.906-24.227 50.339-27.113 52.969l-134.796 115.898c-36.608 36.724-52.154 63.023-52.015 87.878 0.093 16.128 9.681 34.001 27.485 61.626l8.448 13.498 0.023 0.023c0.023 0.023 0.023 0.093 0.070 0.116l100.073 159.953c4.492 7.168 4.724 16.198 0.628 23.622-4.073 7.447-11.869 12.032-20.34 12.032h-90.903c-35.281 0-59.392-31.581-62.534-35.91l-54.179-80.337c-0.070-0.14-0.163-0.256-0.256-0.396l-0.861 2.932 62.743 115.572c12.079 19.968 29.905 21.388 29.626 21.411h139.636c41.658 0 72.774-26.577 73.007-26.74 0.838-0.721 1.722-1.42 2.653-2.025 20.852-13.708 63.977-50.851 63.977-78.266l-1.443-293.353c-0.209 0.209-0.815 1.28-0.954 2.723l-0.931 14.662c-0.023 0.14 0 0.279-0.023 0.419l-15.337 244.41c-0.628 9.891-7.401 18.269-16.943 20.945-9.519 2.7-19.689-0.977-25.367-9.1-3.537-5.050-86.807-124.276-106.845-154.019-12.707-18.641-18.362-35.584-18.362-56.855-0.023-13.754-0.047-29.324 11.66-49.245 0.721-1.257 1.583-2.42 2.513-3.514l120.972-138.775zM349.231 439.948c14.732 21.388 36.422 52.62 55.273 79.686l8.052-128.372-63.325 48.687zM589.917 184.553c-0.186 1.443-0.186 4.212 1.862 6.889l15.756 20.55c0 0 0.023 0.023 0.047 0.023 0 0.023 0 0.023 0.023 0.047l13.94 18.153c3.119 4.049 9.007 4.817 13.033 1.769l43.799-33.722c-20.247-11.008-37.539-26.88-50.246-46.173l-34.607 26.298c-2.723 2.048-3.421 4.724-3.607 6.167v0zM560.896-17.455c8.122 39.773 36.701 73.193 76.125 86.784 8.308 2.863 14.313 10.193 15.5 18.897 6.191 45.917 45.824 80.524 92.23 80.524 30.604 0 56.972-13.103 74.24-36.934 3.747-5.19 9.472-8.564 15.802-9.402 73.542-9.705 130.746-67.956 141.033-139.846l-414.929-0.023z" />
<glyph unicode="&#xe93c;" glyph-name="con-digger" d="M651.636 122.182h-558.545c-51.34 0-93.091-41.751-93.091-93.091s41.751-93.091 93.091-93.091h558.545c51.34 0 93.091 41.751 93.091 93.091s-41.751 93.091-93.091 93.091v0zM232.727 29.091c0 25.67 20.876 46.545 46.545 46.545s46.545-20.876 46.545-46.545c0-25.67-20.876-46.545-46.545-46.545s-46.545 20.876-46.545 46.545v0zM199.121-17.455h-25.879c8.006 13.754 12.94 29.51 12.94 46.545s-4.934 32.791-12.94 46.545h25.879c-8.006-13.754-12.94-29.51-12.94-46.545s4.934-32.791 12.94-46.545v0zM359.424 75.636h25.879c-8.006-13.754-12.94-29.51-12.94-46.545s4.934-32.791 12.94-46.545h-25.879c8.006 13.754 12.94 29.51 12.94 46.545s-4.934 32.791-12.94 46.545v0zM418.909 29.091c0 25.67 20.876 46.545 46.545 46.545s46.545-20.876 46.545-46.545c0-25.67-20.876-46.545-46.545-46.545s-46.545 20.876-46.545 46.545v0zM545.606 75.636h25.879c-8.006-13.754-12.94-29.51-12.94-46.545s4.934-32.791 12.94-46.545h-25.879c8.006 13.754 12.94 29.51 12.94 46.545s-4.934 32.791-12.94 46.545v0zM46.545 29.091c0 25.67 20.876 46.545 46.545 46.545s46.545-20.876 46.545-46.545c0-25.67-20.876-46.545-46.545-46.545s-46.545 20.876-46.545 46.545v0zM651.636-17.455c-25.67 0-46.545 20.876-46.545 46.545s20.876 46.545 46.545 46.545c25.67 0 46.545-20.876 46.545-46.545s-20.876-46.545-46.545-46.545v0zM415.674 762.368c-4.189 7.121-11.823 11.45-20.038 11.45h-93.091c-12.87 0-23.273-10.403-23.273-23.273v-139.636c0-8.82 4.98-16.873 12.87-20.829l186.182-93.091c3.305-1.629 6.842-2.444 10.403-2.444 4.259 0 8.495 1.164 12.218 3.468 6.865 4.259 11.055 11.729 11.055 19.805v75.008c0 4.166-1.117 8.239-3.235 11.823l-93.091 157.719zM465.455 555.473l-139.636 69.818v101.981h56.529l83.107-140.823v-30.976zM915.828-18.921c-5.097 1.932-124.556 49.245-124.556 210.921 0 12.87-10.403 23.273-23.273 23.273s-23.273-10.403-23.273-23.273c0-194.956 148.503-252.207 154.81-254.557 2.653-1.001 5.376-1.443 8.076-1.443 9.402 0 18.246 5.772 21.76 15.104 4.515 12.009-1.583 25.391-13.545 29.975v0zM139.636 378.182c0-12.87 10.403-23.273 23.273-23.273h93.091c12.87 0 23.273 10.403 23.273 23.273s-10.403 23.273-23.273 23.273h-93.091c-12.87 0-23.273-10.403-23.273-23.273v0zM256 308.364h-93.091c-12.87 0-23.273-10.403-23.273-23.273s10.403-23.273 23.273-23.273h93.091c12.87 0 23.273 10.403 23.273 23.273s-10.403 23.273-23.273 23.273v0zM967.005 514.095l-125.859 368.989c-1.489 7.494-4.119 14.615-7.331 21.481l-0.209 0.605c-0.326 0.931-1.001 1.583-1.443 2.444-4.515 8.82-10.031 17.152-17.222 24.367-37.306 37.306-97.955 37.329-135.284 0l-163.98-163.98c-4.259 7.331-7.843 13.545-10.263 17.92-14.732 26.298-45.335 80.989-109.777 80.989h-139.636c-43.078 0-69.818-26.74-69.818-69.818v-256h-69.818c-43.078 0-69.818-26.74-69.818-69.818v-232.727c0-43.078 26.74-69.818 69.818-69.818h512c12.87 0 23.273 10.403 23.273 23.273v93.091c0 8.495-4.631 16.314-12.079 20.41l-34.467 18.921v262.377l132.841 132.841 126.767-250.88-167.75-129.024c-8.518-6.54-11.45-18.060-7.098-27.881 4.352-9.798 14.941-15.476 25.391-13.475l27.997 5.050c31.116-27.439 80.57-41.937 129.187-41.937 40.657 0 80.756 10.147 109.079 31.325 24.134 18.036 38.586 44.311 41.844 76.009 4.515 44.358-14.383 97.699-48.012 135.68l-8.332 9.588zM712.564 899.072c19.13 19.177 50.339 19.13 69.469 0 3.537-3.537 6.26-7.633 8.541-11.939l5.073-14.871c0.419-2.607 0.768-5.236 0.768-7.913 0-13.126-5.12-25.484-14.383-34.746l-190.161-190.185c-12.032 20.131-33.024 55.296-51.852 87.133l172.544 172.521zM605.091 215.273h-488.727c-17.175 0-23.273 6.097-23.273 23.273v232.727c0 17.175 6.097 23.273 23.273 23.273h81.943l406.784-223.232v-56.041zM232.727 528.756v268.335c0 17.175 6.097 23.273 23.273 23.273h139.636c30.929 0 49.385-21.876 69.143-57.181 16.524-29.556 78.499-133.213 93.766-158.697v-254.511l-325.818 178.781zM772.561 754.292l42.38 42.38c1.722 1.722 3.002 3.747 4.585 5.585l99.491-291.677-16.78-12.916-129.676 256.628zM976.989 373.551c-1.908-18.665-9.775-33.28-23.389-43.45-44.009-32.861-141.708-26.973-180.783 9.309l170.356 131.049c23.436-28.207 36.934-66.607 33.815-96.908v0z" />
<glyph unicode="&#xe93d;" glyph-name="con-hammer-screwdriver-2" d="M420.957 669.719l-216.46 216.46c-30.929 30.906-62.301 29.952-83.27 23.738-21.574-6.447-43.799-21.644-69.911-47.779-26.135-26.135-41.309-48.337-47.756-69.911-6.26-20.922-7.215-52.34 23.715-83.247l216.46-216.436c5.492-5.492 13.359-7.936 20.992-6.353 17.245 3.514 36.794-3.351 51.153-17.711 14.359-14.336 21.132-33.932 17.687-51.13-1.513-7.633 0.861-15.523 6.353-21.015l24.041-24.041c4.538-4.538 10.496-6.819 16.454-6.819s11.916 2.281 16.454 6.819l32.419 32.419 415.325-415.325c4.538-4.538 10.496-6.819 16.454-6.819s11.916 2.281 16.454 6.819l46.545 46.545c9.1 9.1 9.1 23.808 0 32.908l-415.325 415.325 32.419 32.419c9.1 9.1 9.1 23.808 0 32.908l-24.041 24.064c-5.492 5.492-13.428 7.983-21.015 6.353-17.222-3.398-36.817 3.375-51.153 17.734-14.359 14.313-21.132 33.885-17.664 51.060 1.559 7.61-0.815 15.523-6.33 21.015v0zM861.091 38.726l-41.472 41.472 13.638 13.638 41.472-41.472-13.638-13.638zM800.349 126.743l-13.638-13.638-324.492 324.492 13.638 13.638 324.492-324.492zM491.404 532.596l-110.476-110.476c1.35 28.486-10.147 57.297-32.14 79.267-20.596 20.62-48.198 32.163-75.194 32.163-1.652 0-3.281-0.047-4.934-0.14l-208.454 208.477c-15.663 15.663-14.871 27.508-12.032 37.004 4.096 13.684 15.895 30.161 36.096 50.339 20.154 20.177 36.631 31.977 50.339 36.073 9.519 2.886 21.341 3.607 37.004-12.032l208.454-208.477c-1.466-28.579 10.217-58.298 32.047-80.081 21.574-21.667 50.967-33.699 79.29-32.116v0zM976.64 620.125c-5.981 5.935-25.088 19.037-72.867 12.847-20.689-2.7-35.631 0.745-45.545 10.589-8.192 8.076-12.707 18.804-12.707 30.185s4.515 22.109 12.707 30.185c4.422 4.375 6.912 10.333 6.912 16.57s-2.49 12.172-6.912 16.57l-94.72 93.556c-151.203 149.271-401.152 52.945-411.718 48.756-9.914-3.91-15.919-14.080-14.522-24.692 1.396-10.566 9.798-18.851 20.41-20.061 1.257-0.163 126.836-15.569 206.173-106.054 0.209-0.233 0.489-0.303 0.698-0.535 0.186-0.209 0.256-0.489 0.465-0.675 8.215-8.122 12.707-18.874 12.707-30.278 0-11.357-4.515-22.086-12.8-30.255l-30.534-30.464c-9.1-9.1-9.123-23.808-0.023-32.908 4.538-4.561 10.519-6.842 16.477-6.842 5.935 0 11.892 2.281 16.454 6.796l30.417 30.371c17.129 16.896 26.554 39.354 26.577 63.302 0 23.156-8.983 44.893-25.088 61.603-0.14 0.163-0.163 0.396-0.326 0.559-44.963 51.27-101.585 81.385-148.084 98.816 79.337 14.825 199.261 19.2 280.064-60.602l80.151-79.151c-7.796-13.405-11.985-28.649-11.985-44.567 0-23.924 9.425-46.406 26.531-63.302 14.103-13.94 40.169-29.37 84.247-23.645 23.063 2.979 33.21-0.303 35.77-1.35l29.044-28.672-132.678-130.956-29.347 28.928c-1.071 2.63-4.212 12.777-1.071 35.887 4.608 33.908-3.793 62.534-24.273 82.735-35.165 34.653-92.323 34.653-127.511-0.070l-71.354-70.959c-9.123-9.076-9.169-23.785-0.093-32.908 9.053-9.1 23.761-9.169 32.908-0.093l71.308 70.889c17.105 16.919 44.94 16.873 62.045 0 9.798-9.658 13.452-24.25 10.868-43.334-6.609-48.524 6.772-67.654 12.823-73.612l35.421-34.956c7.796-7.773 18.036-11.66 28.276-11.66 10.193 0 20.41 3.863 28.183 11.567l142.15 140.311c7.61 7.564 11.799 17.641 11.776 28.323-0.023 10.659-4.236 20.689-11.823 28.183l-35.584 35.072zM73.472-3.444c9.402-9.286 21.76-13.964 34.118-13.964s24.739 4.655 34.164 13.964l304.78 301.684c9.146 9.053 9.216 23.761 0.163 32.908-9.053 9.169-23.785 9.193-32.931 0.186l-304.733-301.661c-0.745-0.721-2.095-0.721-2.863 0l-59.183 60.393 256.489 254.045c9.146 9.053 9.216 23.785 0.163 32.931-9.030 9.123-23.785 9.169-32.908 0.163l-256.442-253.975c-9.239-9.076-14.336-21.201-14.336-34.141s5.097-25.065 14.289-34.095l59.229-58.438z" />
<glyph unicode="&#xe93e;" glyph-name="con-ruler-pencil" d="M744.727-64c9.775 0 18.502 6.097 21.853 15.29l116.364 318.231c0.954 2.56 1.42 5.26 1.42 7.983v589.405c0 51.34-41.751 93.091-93.091 93.091h-93.091c-51.34 0-93.091-41.751-93.091-93.091v-589.405c0-2.723 0.489-5.423 1.42-7.983l116.364-318.231c3.351-9.193 12.079-15.29 21.853-15.29v0zM651.636 773.818h186.182v-465.455l-23.273-17.455-79.127 59.345c-8.262 6.214-19.665 6.191-27.927 0l-55.855-41.891v465.455zM721.455 302.545l79.127-59.345c4.143-3.095 9.053-4.655 13.964-4.655 2.769 0 5.469 0.628 8.099 1.606l-43.124-117.969h-69.585l-49.292 134.772 60.812 45.591zM726.947 75.636h35.537l-17.757-48.593-17.78 48.593zM698.182 913.455h93.091c25.67 0 46.545-20.876 46.545-46.545v-46.545h-186.182v46.545c0 25.67 20.876 46.545 46.545 46.545v0zM442.182-64c12.847 0 23.273 10.426 23.273 23.273v977.455c0 12.847-10.426 23.273-23.273 23.273h-279.273c-12.847 0-23.273-10.426-23.273-23.273v-977.455c0-12.847 10.426-23.273 23.273-23.273h279.273zM186.182 913.455h232.727v-93.091h-69.818c-12.847 0-23.273-10.426-23.273-23.273s10.426-23.273 23.273-23.273h69.818v-93.091h-116.364c-12.847 0-23.273-10.426-23.273-23.273s10.426-23.273 23.273-23.273h116.364v-93.091h-69.818c-12.847 0-23.273-10.426-23.273-23.273s10.426-23.273 23.273-23.273h69.818v-93.091h-116.364c-12.847 0-23.273-10.426-23.273-23.273s10.426-23.273 23.273-23.273h116.364v-93.091h-69.818c-12.847 0-23.273-10.426-23.273-23.273s10.426-23.273 23.273-23.273h69.818v-93.091h-116.364c-12.847 0-23.273-10.426-23.273-23.273s10.426-23.273 23.273-23.273h116.364v-93.091h-232.727v930.909z" />
<glyph unicode="&#xe93f;" glyph-name="con-spade-fork" d="M209.455-64h93.091c64.163 0 116.364 52.201 116.364 116.364v186.182c0 12.847-10.403 23.273-23.273 23.273h-46.545c-12.847 0-23.273 10.449-23.273 23.273v411.578c54.947 26.205 93.091 82.153 93.091 146.967v93.091c0 12.847-10.403 23.273-23.273 23.273h-279.273c-12.87 0-23.273-10.426-23.273-23.273v-93.091c0-64.815 38.144-120.739 93.091-146.967v-411.578c0-12.823-10.426-23.273-23.273-23.273h-46.545c-12.87 0-23.273-10.426-23.273-23.273v-186.182c0-64.163 52.201-116.364 116.364-116.364v0zM232.727 587.636h46.545v-186.182h-46.545v186.182zM372.364 913.455v-46.545h-232.727v46.545h232.727zM141.987 820.364h228.026c-10.822-53.039-57.809-93.091-114.013-93.091s-103.191 40.052-114.013 93.091v0zM256 680.727c7.913 0 15.639 0.768 23.273 1.862v-48.407h-46.545v48.407c7.633-1.094 15.36-1.862 23.273-1.862v0zM139.636 215.273h23.273c38.493 0 69.818 31.325 69.818 69.818v69.818h46.545v-69.818c0-38.493 31.325-69.818 69.818-69.818h23.273v-162.909c0-38.493-31.325-69.818-69.818-69.818h-93.091c-38.493 0-69.818 31.325-69.818 69.818v162.909zM581.818-64c12.87 0 23.273 10.426 23.273 23.273v232.727c0 12.823 10.426 23.273 23.273 23.273s23.273-10.449 23.273-23.273v-232.727c0-12.847 10.403-23.273 23.273-23.273s23.273 10.426 23.273 23.273v232.727c0 12.823 10.426 23.273 23.273 23.273s23.273-10.449 23.273-23.273v-232.727c0-12.847 10.403-23.273 23.273-23.273s23.273 10.426 23.273 23.273v232.727c0 12.823 10.426 23.273 23.273 23.273s23.273-10.449 23.273-23.273v-232.727c0-12.847 10.403-23.273 23.273-23.273s23.273 10.426 23.273 23.273v232.727c0 38.493-31.325 69.818-69.818 69.818-12.847 0-23.273 10.449-23.273 23.273v92.975c0 0.047 0.023 0.070 0.023 0.116s-0.023 0.070-0.023 0.116v232.495c0 0.047 0.023 0.070 0.023 0.116s-0.023 0.070-0.023 0.116v85.644c54.947 26.205 93.091 82.153 93.091 146.967v93.091c0 12.847-10.403 23.273-23.273 23.273h-279.273c-12.87 0-23.273-10.426-23.273-23.273v-93.091c0-64.815 38.144-120.739 93.091-146.967v-411.578c0-12.823-10.426-23.273-23.273-23.273-38.493 0-69.818-31.325-69.818-69.818v-232.727c0-12.847 10.403-23.273 23.273-23.273v0zM744.727 401.455h-46.545v186.182h46.545v-186.182zM721.455 261.818c-11.055 0-21.388-2.816-30.697-7.424 4.608 9.309 7.424 19.642 7.424 30.697v69.818h46.545v-69.818c0-11.055 2.816-21.388 7.424-30.697-9.309 4.608-19.642 7.424-30.697 7.424v0zM837.818 913.455v-46.545h-232.727v46.545h232.727zM607.441 820.364h228.026c-10.822-53.039-57.809-93.091-114.013-93.091s-103.191 40.052-114.013 93.091v0zM721.455 680.727c7.913 0 15.639 0.768 23.273 1.862v-48.407h-46.545v48.407c7.633-1.094 15.36-1.862 23.273-1.862v0z" />
<glyph unicode="&#xe940;" glyph-name="calculator" d="M384 896h-320c-35.2 0-64-28.8-64-64v-320c0-35.2 28.796-64 64-64h320c35.2 0 64 28.8 64 64v320c0 35.2-28.8 64-64 64zM384 640h-320v64h320v-64zM896 896h-320c-35.204 0-64-28.8-64-64v-832c0-35.2 28.796-64 64-64h320c35.2 0 64 28.8 64 64v832c0 35.2-28.8 64-64 64zM896 320h-320v64h320v-64zM896 512h-320v64h320v-64zM384 384h-320c-35.2 0-64-28.8-64-64v-320c0-35.2 28.796-64 64-64h320c35.2 0 64 28.8 64 64v320c0 35.2-28.8 64-64 64zM384 128h-128v-128h-64v128h-128v64h128v128h64v-128h128v-64z" />
<glyph unicode="&#xe941;" glyph-name="con-truck" d="M907.636 773.818c12.87 0 23.273 10.403 23.273 23.273s-10.403 23.273-23.273 23.273h-267.636c-11.055 0-20.596-7.773-22.784-18.618l-24.739-121.018h-569.204c-12.87 0-23.273-10.403-23.273-23.273v-139.636c0-9.146 5.329-17.408 13.638-21.178l512-232.727c3.072-1.396 6.353-2.095 9.635-2.095 3.631 0 7.261 0.838 10.566 2.537 6.307 3.212 10.822 9.123 12.218 16.058l100.934 493.382 248.646 0.023zM518.307 318.371l-471.761 214.435v101.376h134.516l-17.711-88.529c-2.513-12.614 5.655-24.855 18.246-27.392 1.536-0.326 3.072-0.465 4.585-0.465 10.868 0 20.596 7.633 22.784 18.711l19.572 97.676h92.183l-27.020-135.075c-2.513-12.614 5.655-24.855 18.246-27.392 1.536-0.326 3.072-0.465 4.585-0.465 10.868 0 20.596 7.633 22.784 18.711l28.858 144.198h92.183l-40.983-204.893c-2.513-12.614 5.655-24.855 18.246-27.392 1.536-0.326 3.072-0.465 4.585-0.465 10.868 0 20.596 7.633 22.784 18.711l42.822 214.063h75.124l-64.628-315.811zM906.938 616.541c-2.583 10.356-11.892 17.641-22.575 17.641h-93.091c-10.682 0-19.968-7.261-22.575-17.641l-23.273-93.091c-1.745-6.959-0.186-14.313 4.236-19.945 4.399-5.655 11.171-8.96 18.339-8.96h139.636c7.168 0 13.94 3.305 18.339 8.96 4.399 5.632 5.981 13.009 4.236 19.945l-23.273 93.091zM797.812 541.091l11.636 46.545h56.739l11.636-46.545h-80.012zM139.636 401.455c-77.009 0-139.636-62.627-139.636-139.636s62.627-139.636 139.636-139.636c77.009 0 139.636 62.627 139.636 139.636s-62.627 139.636-139.636 139.636v0zM139.636 168.727c-51.34 0-93.091 41.751-93.091 93.091s41.751 93.091 93.091 93.091c51.34 0 93.091-41.751 93.091-93.091s-41.751-93.091-93.091-93.091v0zM977.012 708.422c-2.118 10.938-11.706 18.851-22.831 18.851h-232.727c-11.148 0-20.736-7.913-22.831-18.851l-46.545-240.244c-0.303-1.443-0.442-2.956-0.442-4.422v-178.665c0-12.87 10.403-23.273 23.273-23.273h23.273c0-77.009 62.627-139.636 139.636-139.636s139.636 62.627 139.636 139.636h23.273c12.87 0 23.273 10.403 23.273 23.273v178.665c0 1.466-0.14 2.979-0.442 4.422l-46.545 240.244zM837.818 168.727c-51.34 0-93.091 41.751-93.091 93.091s41.751 93.091 93.091 93.091c51.34 0 93.091-41.751 93.091-93.091s-41.751-93.091-93.091-93.091v0zM977.455 308.364h-8.145c-19.223 54.156-70.819 93.091-131.491 93.091s-112.268-38.935-131.491-93.091h-8.145v153.158l42.473 219.206h194.327l42.473-219.206v-153.158zM186.182 261.818c0-25.706-20.839-46.545-46.545-46.545s-46.545 20.839-46.545 46.545c0 25.706 20.839 46.545 46.545 46.545s46.545-20.839 46.545-46.545zM884.364 261.818c0-25.706-20.839-46.545-46.545-46.545s-46.545 20.839-46.545 46.545c0 25.706 20.839 46.545 46.545 46.545s46.545-20.839 46.545-46.545z" />
<glyph unicode="&#xe942;" glyph-name="add" d="M810 384.667h-256v-256h-84v256h-256v84h256v256h84v-256h256v-84z" />
<glyph unicode="&#xe943;" glyph-name="skip_next" d="M682 682.667h86v-512h-86v512zM256 170.667v512l362-256z" />
<glyph unicode="&#xe944;" glyph-name="skip_previous" d="M406 426.667l362 256v-512zM256 682.667h86v-512h-86v512z" />
<glyph unicode="&#xe945;" glyph-name="view_column" d="M682 724.667h214v-554h-214v554zM170 170.667v554h214v-554h-214zM426 170.667v554h214v-554h-214z" />
<glyph unicode="&#xe946;" glyph-name="filter_list" d="M256 384.667v84h512v-84h-512zM128 682.667h768v-86h-768v86zM426 170.667v86h172v-86h-172z" />
<glyph unicode="&#xe947;" glyph-name="keyboard_arrow_left" d="M658 230.667l-60-60-256 256 256 256 60-60-196-196z" />
<glyph unicode="&#xe948;" glyph-name="keyboard_arrow_right" d="M366 230.667l196 196-196 196 60 60 256-256-256-256z" />
<glyph unicode="&#xe949;" glyph-name="panorama_fisheye" d="M512 84.667q140 0 241 101t101 241-101 241-241 101-241-101-101-241 101-241 241-101zM512 852.667q176 0 301-125t125-301-125-301-301-125-301 125-125 301 125 301 301 125z" />
<glyph unicode="&#xe94a;" glyph-name="remove_red_eye" d="M512 554.667q52 0 90-38t38-90-38-90-90-38-90 38-38 90 38 90 90 38zM512 212.667q88 0 151 63t63 151-63 151-151 63-151-63-63-151 63-151 151-63zM512 746.667q158 0 286-88t184-232q-56-144-184-232t-286-88-286 88-184 232q56 144 184 232t286 88z" />
<glyph unicode="&#xe94b;" glyph-name="visibility_off" d="M506 554.667h6q52 0 90-38t38-90v-8zM322 520.667q-24-48-24-94 0-88 63-151t151-63q46 0 94 24l-66 66q-16-4-28-4-52 0-90 38t-38 90q0 12 4 28zM86 756.667l54 54 756-756-54-54q-10 10-63 62t-81 80q-86-36-186-36-158 0-286 88t-184 232q22 52 69 115t91 97q-24 24-67 68t-49 50zM512 640.667q-40 0-78-16l-92 92q78 30 170 30 158 0 285-88t183-232q-48-118-146-202l-124 124q16 38 16 78 0 88-63 151t-151 63z" />
<glyph unicode="&#xe94c;" glyph-name="ios_share" d="M682 724.667l-60-60-68 68v-476h-84v476l-68-68-60 60 170 172zM854 512.667v-470q0-36-25-61t-61-25h-512q-36 0-61 25t-25 61v470q0 34 25 59t61 25h128v-84h-128v-470h512v470h-128v84h128q36 0 61-25t25-59z" />
<glyph unicode="&#xe94d;" glyph-name="call_made" d="M384 724.667h426v-426h-84v282l-496-496-60 60 496 496h-282v84z" />
<glyph unicode="&#xe94e;" glyph-name="invert_colors_on" d="M512 102.667v618l-180-180q-76-76-76-182 0-104 76-180t180-76zM754 600.667q100-100 100-241t-100-241-242-100q-58 0-129 29t-113 71q-100 100-100 241t100 241l242 242z" />
<glyph unicode="&#xe94f;" glyph-name="supervised_user_circle" d="M512 84.667q106 0 193 61t125 157q-60 48-164 48-58 0-123-25t-65-65v-174q12-2 34-2zM410 260.667q0 70 80 114-50 10-80 10-54 0-122-19t-98-53q28-76 86-132t134-80v160zM410 650.667q-42 0-72-30t-30-72 30-71 72-29 71 29 29 71-29 72-71 30zM666 582.667q-34 0-58-24t-24-58 24-58 58-24 58 24 24 58-24 58-58 24zM512 852.667q176 0 301-125t125-301-125-301-301-125q-178 0-303 125t-125 301 125 301 303 125z" />
<glyph unicode="&#xe950;" glyph-name="popout" d="M502.208 526.688l85.312-85.28 160.512 160.544 82.88-82.88 0.128 247.488-249.12 1.472 80.832-80.8-160.544-160.544zM829.632 417.76l-61.44 62.304 1.12-288.224-512.48-0.288 0.512 511.136 286.656 1.28-64 64h-224c-35.328 0-64-28.672-64-64v-512c0-35.328 28.672-64 64-64h512c35.328 0 64 28.672 64 64l-2.368 225.792z" />
<glyph unicode="&#xe992;" glyph-name="equalizer" d="M448 832v16c0 26.4-21.6 48-48 48h-160c-26.4 0-48-21.6-48-48v-16h-192v-128h192v-16c0-26.4 21.6-48 48-48h160c26.4 0 48 21.6 48 48v16h576v128h-576zM256 704v128h128v-128h-128zM832 528c0 26.4-21.6 48-48 48h-160c-26.4 0-48-21.6-48-48v-16h-576v-128h576v-16c0-26.4 21.6-48 48-48h160c26.4 0 48 21.6 48 48v16h192v128h-192v16zM640 384v128h128v-128h-128zM448 208c0 26.4-21.6 48-48 48h-160c-26.4 0-48-21.6-48-48v-16h-192v-128h192v-16c0-26.4 21.6-48 48-48h160c26.4 0 48 21.6 48 48v16h576v128h-576v16zM256 64v128h128v-128h-128z" />
<glyph unicode="&#xe993;" glyph-name="equalizer2" d="M896 512h16c26.4 0 48 21.6 48 48v160c0 26.4-21.6 48-48 48h-16v192h-128v-192h-16c-26.4 0-48-21.6-48-48v-160c0-26.4 21.6-48 48-48h16v-576h128v576zM768 704h128v-128h-128v128zM592 128c26.4 0 48 21.6 48 48v160c0 26.4-21.6 48-48 48h-16v576h-128v-576h-16c-26.4 0-48-21.6-48-48v-160c0-26.4 21.6-48 48-48h16v-192h128v192h16zM448 320h128v-128h-128v128zM272 512c26.4 0 48 21.6 48 48v160c0 26.4-21.6 48-48 48h-16v192h-128v-192h-16c-26.4 0-48-21.6-48-48v-160c0-26.4 21.6-48 48-48h16v-576h128v576h16zM128 704h128v-128h-128v128z" />
<glyph unicode="&#xe9a6;" glyph-name="meter" d="M512 896c282.77 0 512-229.23 512-512 0-192.792-106.576-360.666-264.008-448h-495.984c-157.432 87.334-264.008 255.208-264.008 448 0 282.77 229.23 512 512 512zM801.914 94.086c77.438 77.44 120.086 180.398 120.086 289.914h-90v64h85.038c-7.014 44.998-21.39 88.146-42.564 128h-106.474v64h64.284c-9.438 11.762-19.552 23.096-30.37 33.914-46.222 46.22-101.54 80.038-161.914 99.798v-69.712h-64v85.040c-20.982 3.268-42.36 4.96-64 4.96s-43.018-1.69-64-4.96v-85.040h-64v69.712c-60.372-19.76-115.692-53.576-161.914-99.798-10.818-10.818-20.932-22.152-30.37-33.914h64.284v-64h-106.476c-21.174-39.854-35.552-83.002-42.564-128h85.040v-64h-90c0-109.516 42.648-212.474 120.086-289.914 10.71-10.71 21.924-20.728 33.56-30.086h192.354l36.572 512h54.856l36.572-512h192.354c11.636 9.358 22.852 19.378 33.56 30.086z" />
<glyph unicode="&#xea4c;" glyph-name="sort-amount-asc" d="M320 192v768h-128v-768h-160l224-224 224 224h-160zM448 384h576v-128h-576v128zM448 576h448v-128h-448v128zM448 768h320v-128h-320v128zM448 960h192v-128h-192v128z" />
<glyph unicode="&#xea91;" glyph-name="facebook2" d="M928 960h-832c-52.8 0-96-43.2-96-96v-832c0-52.8 43.2-96 96-96h416v448h-128v128h128v64c0 105.8 86.2 192 192 192h128v-128h-128c-35.2 0-64-28.8-64-64v-64h192l-32-128h-160v-448h288c52.8 0 96 43.2 96 96v832c0 52.8-43.2 96-96 96z" />
<glyph unicode="&#xea92;" glyph-name="instagram" d="M512 867.8c136.8 0 153-0.6 206.8-3 50-2.2 77-10.6 95-17.6 23.8-9.2 41-20.4 58.8-38.2 18-18 29-35 38.4-58.8 7-18 15.4-45.2 17.6-95 2.4-54 3-70.2 3-206.8s-0.6-153-3-206.8c-2.2-50-10.6-77-17.6-95-9.2-23.8-20.4-41-38.2-58.8-18-18-35-29-58.8-38.4-18-7-45.2-15.4-95-17.6-54-2.4-70.2-3-206.8-3s-153 0.6-206.8 3c-50 2.2-77 10.6-95 17.6-23.8 9.2-41 20.4-58.8 38.2-18 18-29 35-38.4 58.8-7 18-15.4 45.2-17.6 95-2.4 54-3 70.2-3 206.8s0.6 153 3 206.8c2.2 50 10.6 77 17.6 95 9.2 23.8 20.4 41 38.2 58.8 18 18 35 29 58.8 38.4 18 7 45.2 15.4 95 17.6 53.8 2.4 70 3 206.8 3zM512 960c-139 0-156.4-0.6-211-3-54.4-2.4-91.8-11.2-124.2-23.8-33.8-13.2-62.4-30.6-90.8-59.2-28.6-28.4-46-57-59.2-90.6-12.6-32.6-21.4-69.8-23.8-124.2-2.4-54.8-3-72.2-3-211.2s0.6-156.4 3-211c2.4-54.4 11.2-91.8 23.8-124.2 13.2-33.8 30.6-62.4 59.2-90.8 28.4-28.4 57-46 90.6-59 32.6-12.6 69.8-21.4 124.2-23.8 54.6-2.4 72-3 211-3s156.4 0.6 211 3c54.4 2.4 91.8 11.2 124.2 23.8 33.6 13 62.2 30.6 90.6 59s46 57 59 90.6c12.6 32.6 21.4 69.8 23.8 124.2 2.4 54.6 3 72 3 211s-0.6 156.4-3 211c-2.4 54.4-11.2 91.8-23.8 124.2-12.6 34-30 62.6-58.6 91-28.4 28.4-57 46-90.6 59-32.6 12.6-69.8 21.4-124.2 23.8-54.8 2.6-72.2 3.2-211.2 3.2v0zM512 711c-145.2 0-263-117.8-263-263s117.8-263 263-263 263 117.8 263 263c0 145.2-117.8 263-263 263zM512 277.4c-94.2 0-170.6 76.4-170.6 170.6s76.4 170.6 170.6 170.6c94.2 0 170.6-76.4 170.6-170.6s-76.4-170.6-170.6-170.6zM846.8 721.4c0-33.91-27.49-61.4-61.4-61.4s-61.4 27.49-61.4 61.4c0 33.91 27.49 61.4 61.4 61.4s61.4-27.49 61.4-61.4z" />
<glyph unicode="&#xea93;" glyph-name="whatsapp" d="M873 811.2c-95.8 96-223.2 148.8-359 148.8-279.6 0-507.2-227.6-507.2-507.4 0-89.4 23.4-176.8 67.8-253.6l-72-263 269 70.6c74.2-40.4 157.6-61.8 242.4-61.8h0.2c0 0 0 0 0 0 279.6 0 507.4 227.6 507.4 507.4 0 135.6-52.8 263-148.6 359zM514.2 30.4v0c-75.8 0-150 20.4-214.8 58.8l-15.4 9.2-159.6-41.8 42.6 155.6-10 16c-42.4 67-64.6 144.6-64.6 224.4 0 232.6 189.2 421.8 422 421.8 112.6 0 218.6-44 298.2-123.6 79.6-79.8 123.4-185.6 123.4-298.4-0.2-232.8-189.4-422-421.8-422zM745.4 346.4c-12.6 6.4-75 37-86.6 41.2s-20 6.4-28.6-6.4c-8.4-12.6-32.8-41.2-40.2-49.8-7.4-8.4-14.8-9.6-27.4-3.2s-53.6 19.8-102 63c-37.6 33.6-63.2 75.2-70.6 87.8s-0.8 19.6 5.6 25.8c5.8 5.6 12.6 14.8 19 22.2s8.4 12.6 12.6 21.2c4.2 8.4 2.2 15.8-1 22.2s-28.6 68.8-39 94.2c-10.2 24.8-20.8 21.4-28.6 21.8-7.4 0.4-15.8 0.4-24.2 0.4s-22.2-3.2-33.8-15.8c-11.6-12.6-44.4-43.4-44.4-105.8s45.4-122.6 51.8-131.2c6.4-8.4 89.4-136.6 216.6-191.4 30.2-13 53.8-20.8 72.2-26.8 30.4-9.6 58-8.2 79.8-5 24.4 3.6 75 30.6 85.6 60.2s10.6 55 7.4 60.2c-3 5.6-11.4 8.8-24.2 15.2z" />
<glyph unicode="&#xea97;" glyph-name="vine" d="M960.8 451c-26.4-6-51.8-8.8-74.8-8.8-129.2 0-228.6 90.2-228.6 247.2 0 77 29.8 116.8 71.8 116.8 40 0 66.6-35.8 66.6-108.6 0-41.4-11-86.8-19.2-113.6 0 0 39.8-69.4 148.6-48.2 23.2 51.4 35.6 117.8 35.6 176 0 156.8-80 248.2-226.6 248.2-150.8 0-239-115.8-239-268.6 0-151.4 70.8-281.2 187.4-340.4-49-98.2-111.4-184.6-176.6-249.8-118 142.8-224.8 333.2-268.6 705h-174.2c80.6-619.2 320.4-816.4 384-854.2 35.8-21.6 66.8-20.6 99.6-2 51.6 29.2 206.2 184 292 365 36 0 79.2 4.2 122.2 14v122z" />
<glyph unicode="&#xea9d;" glyph-name="youtube" d="M1013.8 652.8c0 0-10 70.6-40.8 101.6-39 40.8-82.6 41-102.6 43.4-143.2 10.4-358.2 10.4-358.2 10.4h-0.4c0 0-215 0-358.2-10.4-20-2.4-63.6-2.6-102.6-43.4-30.8-31-40.6-101.6-40.6-101.6s-10.2-82.8-10.2-165.8v-77.6c0-82.8 10.2-165.8 10.2-165.8s10-70.6 40.6-101.6c39-40.8 90.2-39.4 113-43.8 82-7.8 348.2-10.2 348.2-10.2s215.2 0.4 358.4 10.6c20 2.4 63.6 2.6 102.6 43.4 30.8 31 40.8 101.6 40.8 101.6s10.2 82.8 10.2 165.8v77.6c-0.2 82.8-10.4 165.8-10.4 165.8zM406.2 315.2v287.8l276.6-144.4-276.6-143.4z" />
<glyph unicode="&#xeaba;" glyph-name="tumblr2" d="M928 960h-832c-52.8 0-96-43.2-96-96v-832c0-52.8 43.2-96 96-96h832c52.8 0 96 43.2 96 96v832c0 52.8-43.2 96-96 96zM731.8 135.4c-30.2-14.2-57.6-24.2-82-30-24.4-5.6-51-8.6-79.4-8.6-32.4 0-51.4 4-76.2 12.2s-46 19.8-63.6 34.8c-17.6 15.2-29.6 31.2-36.4 48.2s-10.2 41.6-10.2 74v247.8h-96v100c27.8 9 60 22 79.6 38.8 19.8 16.8 35.8 37 47.6 60.6 12 23.6 20.2 53.6 24.8 90h100.4v-163.2h163.6v-126.2h-163.4v-181.2c0-41-0.6-64.6 3.8-76.2s15.2-23.6 27-30.4c15.6-9.4 33.6-14 53.6-14 35.8 0 71.4 11.6 106.8 34.8v-111.4z" />
<glyph unicode="&#xeac5;" glyph-name="skype" d="M425.6 922.6c-1.6 1-3.4 1.8-5 2.6-1.8-0.4-3.4-0.6-5.2-1l10.2-1.6zM36.8 539c-0.4-1.8-0.6-3.6-0.8-5.2 1-1.6 1.6-3.2 2.6-4.8l-1.8 10zM986.8 357.4c0.4 1.8 0.6 3.6 1 5.4-1 1.6-1.6 3.2-2.6 4.8l1.6-10.2zM592-23c1.6-1 3.4-1.8 5-2.6 1.8 0.4 3.6 0.6 5.4 0.8l-10.4 1.8zM987.8 362.8c-0.4-1.8-0.6-3.6-1-5.4l-1.8 10.4c1-1.8 1.8-3.4 2.8-5 5.2 28.8 8 58.2 8 87.6 0 65.2-12.8 128.6-38 188.2-24.4 57.6-59.2 109.4-103.6 153.8s-96.2 79.2-153.6 103.6c-59.6 25.2-123 38-188.2 38-30.8 0-61.6-2.8-91.6-8.6 0 0-0.2 0-0.2 0 1.6-0.8 3.4-1.6 5-2.6l-10.2 1.6c1.8 0.4 3.4 0.6 5.2 1-41.2 21.8-87.4 33.6-134.2 33.6-76.4 0-148.4-29.8-202.4-83.8s-83.8-126-83.8-202.4c0-48.6 12.6-96.6 36-138.8 0.4 1.8 0.6 3.6 0.8 5.2l1.8-10.2c-1 1.6-1.8 3.2-2.6 4.8-4.8-27.4-7.2-55.4-7.2-83.4 0-65.2 12.8-128.6 38-188.2 24.4-57.6 59.2-109.2 103.6-153.6s96.2-79.2 153.8-103.6c59.6-25.2 123-38 188.2-38 28.4 0 56.8 2.6 84.6 7.6-1.6 1-3.2 1.8-5 2.6l10.4-1.8c-1.8-0.4-3.6-0.6-5.4-0.8 42.8-24.2 91.4-37.2 140.8-37.2 76.4 0 148.4 29.8 202.4 83.8s83.8 126 83.8 202.4c-0.2 48.6-12.8 96.6-36.4 139.2zM514.2 154.2c-171.8 0-248.6 84.4-248.6 147.8 0 32.4 24 55.2 57 55.2 73.6 0 54.4-105.6 191.6-105.6 70.2 0 109 38.2 109 77.2 0 23.4-11.6 49.4-57.8 60.8l-152.8 38.2c-123 30.8-145.4 97.4-145.4 160 0 129.8 122.2 178.6 237 178.6 105.8 0 230.4-58.4 230.4-136.4 0-33.4-29-52.8-62-52.8-62.8 0-51.2 86.8-177.6 86.8-62.8 0-97.4-28.4-97.4-69s49.6-53.6 92.6-63.4l113.2-25.2c123.8-27.6 155.2-100 155.2-168 0-105.4-81-184.2-244.4-184.2z" />
<glyph unicode="&#xead1;" glyph-name="pinterest" d="M512 891.6c-245 0-443.6-198.6-443.6-443.6 0-188 117-348.4 282-413-3.8 35-7.4 89 1.6 127.2 8 34.6 52 220.4 52 220.4s-13.2 26.6-13.2 65.8c0 61.6 35.8 107.8 80.2 107.8 37.8 0 56.2-28.4 56.2-62.4 0-38-24.2-95-36.8-147.6-10.6-44.2 22-80.2 65.6-80.2 78.8 0 139.4 83.2 139.4 203.2 0 106.2-76.4 180.4-185.2 180.4-126.2 0-200.2-94.6-200.2-192.6 0-38.2 14.6-79 33-101.2 3.6-4.4 4.2-8.2 3-12.8-3.4-14-10.8-44.2-12.4-50.4-2-8.2-6.4-9.8-14.8-6-55.4 25.8-90 106.8-90 171.8 0 140 101.6 268.4 293 268.4 153.8 0 273.4-109.6 273.4-256.2 0-152.8-96.4-276-230.2-276-45 0-87.2 23.4-101.6 51 0 0-22.2-84.6-27.6-105.4-10-38.6-37-86.8-55.2-116.2 41.6-12.8 85.6-19.8 131.4-19.8 245 0 443.6 198.6 443.6 443.6 0 245.2-198.6 443.8-443.6 443.8z" />
</font>
</defs>
</svg>
